<svg width="1539" height="1823" viewBox="0 0 1539 1823" fill="none" xmlns="http://www.w3.org/2000/svg">

<path d="M1122.3 1165.81L765.45 958.019L408.6 1165.81L765.45 1373.61L1122.3 1165.81Z" fill="#FFEF01" fill-opacity="0.5" stroke="white" stroke-width="7" stroke-miterlimit="1" stroke-linejoin="round"/>
<path d="M1122.3 1165.82L765.449 958.02L765.449 542.428L1122.3 750.224V1165.82Z" fill="#FFEF01" fill-opacity="0.5" stroke="white" stroke-width="7" stroke-miterlimit="1" stroke-linejoin="round"/>
<path d="M765.45 958.02L408.6 1165.82L408.6 750.224L765.45 542.428V958.02Z" fill="#FFEF01" fill-opacity="0.5" stroke="white" stroke-width="7" stroke-miterlimit="1" stroke-linejoin="round"/>
<path d="M765.45 1373.61L408.6 1165.81V750.223L765.45 958.019V1373.61Z" fill="#FFEF01" fill-opacity="0.5" stroke="white" stroke-width="7" stroke-miterlimit="1" stroke-linejoin="round"/>
<path d="M765.449 1373.61L1122.3 1165.81V750.223L765.449 958.019L765.449 1373.61Z" fill="#FFEF01" fill-opacity="0.5" stroke="white" stroke-width="7" stroke-miterlimit="1" stroke-linejoin="round"/>
<path d="M1122.3 750.224L765.45 542.428L408.6 750.224L765.45 958.02L1122.3 750.224Z" fill="#FFEF01" fill-opacity="0.5" stroke="white" stroke-width="7" stroke-miterlimit="1" stroke-linejoin="round"/>


<path d="M1122.3 627.351L765.452 419.555L408.602 627.351L765.452 835.147L1122.3 627.351Z" fill="white" fill-opacity="0.5" stroke="#FFEF01" stroke-width="7" stroke-miterlimit="1" stroke-linejoin="round"/>
<path d="M1122.3 627.352L765.451 419.556L765.451 3.96387L1122.3 211.76V627.352Z" fill="white" fill-opacity="0.5" stroke="#FFEF01" stroke-width="7" stroke-miterlimit="1" stroke-linejoin="round"/>
<path d="M765.452 419.556L408.602 627.352L408.602 211.76L765.452 3.96387V419.556Z" fill="white" fill-opacity="0.5" stroke="#FFEF01" stroke-width="7" stroke-miterlimit="1" stroke-linejoin="round"/>
<path d="M765.452 835.147L408.602 627.351V211.759L765.452 419.555V835.147Z" fill="white" fill-opacity="0.5" stroke="#FFEF01" stroke-width="7" stroke-miterlimit="1" stroke-linejoin="round"/>
<path d="M765.451 835.147L1122.3 627.351V211.759L765.451 419.555L765.451 835.147Z" fill="white" fill-opacity="0.5" stroke="#FFEF01" stroke-width="7" stroke-miterlimit="1" stroke-linejoin="round"/>
<path d="M1122.3 211.76L765.452 3.96387L408.602 211.76L765.452 419.556L1122.3 211.76Z" fill="white" fill-opacity="0.5" stroke="#FFEF01" stroke-width="7" stroke-miterlimit="1" stroke-linejoin="round"/>


<path d="M717.307 1370.52L360.456 1162.73L3.60547 1370.52L360.456 1578.32L717.307 1370.52Z" fill="#FFEF01" fill-opacity="0.5" stroke="white" stroke-width="7" stroke-miterlimit="1" stroke-linejoin="round"/>
<path d="M717.306 1370.52L360.455 1162.73L360.455 747.134L717.306 954.93L717.306 1370.52Z" fill="#FFEF01" fill-opacity="0.5" stroke="white" stroke-width="7" stroke-miterlimit="1" stroke-linejoin="round"/>
<path d="M360.456 1162.73L3.60547 1370.52L3.60547 954.93L360.456 747.134L360.456 1162.73Z" fill="#FFEF01" fill-opacity="0.5" stroke="white" stroke-width="7" stroke-miterlimit="1" stroke-linejoin="round"/>
<path d="M360.456 1578.32L3.60547 1370.52V954.929L360.456 1162.73V1578.32Z" fill="#FFEF01" fill-opacity="0.5" stroke="white" stroke-width="7" stroke-miterlimit="1" stroke-linejoin="round"/>
<path d="M360.455 1578.32L717.306 1370.52V954.929L360.455 1162.73L360.455 1578.32Z" fill="#FFEF01" fill-opacity="0.5" stroke="white" stroke-width="7" stroke-miterlimit="1" stroke-linejoin="round"/>
<path d="M717.307 954.93L360.456 747.134L3.60547 954.93L360.456 1162.73L717.307 954.93Z" fill="#FFEF01" fill-opacity="0.5" stroke="white" stroke-width="7" stroke-miterlimit="1" stroke-linejoin="round"/>
<path d="M717.307 864.474L360.456 656.678L3.60547 864.474L360.456 1072.27L717.307 864.474Z" fill="white" fill-opacity="0.5" stroke="#FFEF01" stroke-width="7" stroke-miterlimit="1" stroke-linejoin="round"/>
<path d="M717.306 864.474L360.455 656.678L360.455 241.086L717.306 448.882L717.306 864.474Z" fill="white" fill-opacity="0.5" stroke="#FFEF01" stroke-width="7" stroke-miterlimit="1" stroke-linejoin="round"/>
<path d="M360.456 656.678L3.60547 864.474L3.60547 448.882L360.456 241.086L360.456 656.678Z" fill="white" fill-opacity="0.5" stroke="#FFEF01" stroke-width="7" stroke-miterlimit="1" stroke-linejoin="round"/>
<path d="M360.456 1072.27L3.60547 864.474V448.882L360.456 656.678V1072.27Z" fill="white" fill-opacity="0.5" stroke="#FFEF01" stroke-width="7" stroke-miterlimit="1" stroke-linejoin="round"/>
<path d="M360.455 1072.27L717.306 864.474V448.882L360.455 656.678L360.455 1072.27Z" fill="white" fill-opacity="0.5" stroke="#FFEF01" stroke-width="7" stroke-miterlimit="1" stroke-linejoin="round"/>
<path d="M717.307 448.882L360.456 241.086L3.60547 448.882L360.456 656.678L717.307 448.882Z" fill="white" fill-opacity="0.5" stroke="#FFEF01" stroke-width="7" stroke-miterlimit="1" stroke-linejoin="round"/>
<path d="M1535.46 1373.61L1178.61 1165.82L821.762 1373.61L1178.61 1581.41L1535.46 1373.61Z" fill="white" fill-opacity="0.5" stroke="#FFEF01" stroke-width="7" stroke-miterlimit="1" stroke-linejoin="round"/>
<path d="M1535.46 1373.61L1178.61 1165.82V750.224L1535.46 958.02V1373.61Z" fill="white" fill-opacity="0.5" stroke="#FFEF01" stroke-width="7" stroke-miterlimit="1" stroke-linejoin="round"/>
<path d="M1178.61 1165.82L821.762 1373.61L821.762 958.02L1178.61 750.224V1165.82Z" fill="white" fill-opacity="0.5" stroke="#FFEF01" stroke-width="7" stroke-miterlimit="1" stroke-linejoin="round"/>
<path d="M1178.61 1581.41L821.762 1373.61V958.02L1178.61 1165.82V1581.41Z" fill="white" fill-opacity="0.5" stroke="#FFEF01" stroke-width="7" stroke-miterlimit="1" stroke-linejoin="round"/>
<path d="M1178.61 1581.41L1535.46 1373.61V958.02L1178.61 1165.82L1178.61 1581.41Z" fill="white" fill-opacity="0.5" stroke="#FFEF01" stroke-width="7" stroke-miterlimit="1" stroke-linejoin="round"/>
<path d="M1535.46 958.02L1178.61 750.224L821.762 958.02L1178.61 1165.82L1535.46 958.02Z" fill="white" fill-opacity="0.5" stroke="#FFEF01" stroke-width="7" stroke-miterlimit="1" stroke-linejoin="round"/>
<path d="M1535.46 867.563L1178.61 659.767L821.762 867.562L1178.61 1075.36L1535.46 867.563Z" fill="#FFEF01" fill-opacity="0.5" stroke="white" stroke-width="7" stroke-miterlimit="1" stroke-linejoin="round"/>
<path d="M1535.46 867.563L1178.61 659.767V244.175L1535.46 451.971V867.563Z" fill="#FFEF01" fill-opacity="0.5" stroke="white" stroke-width="7" stroke-miterlimit="1" stroke-linejoin="round"/>
<path d="M1178.61 659.767L821.762 867.563L821.762 451.971L1178.61 244.175V659.767Z" fill="#FFEF01" fill-opacity="0.5" stroke="white" stroke-width="7" stroke-miterlimit="1" stroke-linejoin="round"/>
<path d="M1178.61 1075.36L821.762 867.563V451.971L1178.61 659.767V1075.36Z" fill="#FFEF01" fill-opacity="0.5" stroke="white" stroke-width="7" stroke-miterlimit="1" stroke-linejoin="round"/>
<path d="M1178.61 1075.36L1535.46 867.563V451.971L1178.61 659.767L1178.61 1075.36Z" fill="#FFEF01" fill-opacity="0.5" stroke="white" stroke-width="7" stroke-miterlimit="1" stroke-linejoin="round"/>
<path d="M1535.46 451.971L1178.61 244.175L821.762 451.971L1178.61 659.767L1535.46 451.971Z" fill="#FFEF01" fill-opacity="0.5" stroke="white" stroke-width="7" stroke-miterlimit="1" stroke-linejoin="round"/>
<path d="M1130.47 1610.73L773.622 1402.94L416.771 1610.73L773.622 1818.53L1130.47 1610.73Z" fill="#FFEF01" fill-opacity="0.5" stroke="white" stroke-width="7" stroke-miterlimit="1" stroke-linejoin="round"/>
<path d="M1130.47 1610.73L773.621 1402.94L773.621 987.347L1130.47 1195.14V1610.73Z" fill="#FFEF01" fill-opacity="0.5" stroke="white" stroke-width="7" stroke-miterlimit="1" stroke-linejoin="round"/>
<path d="M773.622 1402.94L416.771 1610.73L416.771 1195.14L773.622 987.347V1402.94Z" fill="#FFEF01" fill-opacity="0.5" stroke="white" stroke-width="7" stroke-miterlimit="1" stroke-linejoin="round"/>
<path d="M773.622 1818.53L416.771 1610.73V1195.14L773.622 1402.94V1818.53Z" fill="#FFEF01" fill-opacity="0.5" stroke="white" stroke-width="7" stroke-miterlimit="1" stroke-linejoin="round"/>
<path d="M773.621 1818.53L1130.47 1610.73V1195.14L773.621 1402.94L773.621 1818.53Z" fill="#FFEF01" fill-opacity="0.5" stroke="white" stroke-width="7" stroke-miterlimit="1" stroke-linejoin="round"/>
<path d="M1130.47 1195.14L773.622 987.347L416.771 1195.14L773.622 1402.94L1130.47 1195.14Z" fill="#FFEF01" fill-opacity="0.5" stroke="white" stroke-width="7" stroke-miterlimit="1" stroke-linejoin="round"/>
<path d="M1130.47 1104.69L773.622 896.891L416.771 1104.69L773.622 1312.48L1130.47 1104.69Z" fill="white" fill-opacity="0.5" stroke="#FFEF01" stroke-width="7" stroke-miterlimit="1" stroke-linejoin="round"/>
<path d="M1130.47 1104.69L773.621 896.891L773.621 481.299L1130.47 689.095V1104.69Z" fill="white" fill-opacity="0.5" stroke="#FFEF01" stroke-width="7" stroke-miterlimit="1" stroke-linejoin="round"/>
<path d="M773.622 896.891L416.771 1104.69L416.771 689.095L773.622 481.299V896.891Z" fill="white" fill-opacity="0.5" stroke="#FFEF01" stroke-width="7" stroke-miterlimit="1" stroke-linejoin="round"/>
<path d="M773.622 1312.48L416.771 1104.69V689.095L773.622 896.891V1312.48Z" fill="white" fill-opacity="0.5" stroke="#FFEF01" stroke-width="7" stroke-miterlimit="1" stroke-linejoin="round"/>
<path d="M773.621 1312.48L1130.47 1104.69V689.095L773.621 896.891L773.621 1312.48Z" fill="white" fill-opacity="0.5" stroke="#FFEF01" stroke-width="7" stroke-miterlimit="1" stroke-linejoin="round"/>
<path d="M1130.47 689.095L773.622 481.299L416.771 689.095L773.622 896.891L1130.47 689.095Z" fill="white" fill-opacity="0.5" stroke="#FFEF01" stroke-width="7" stroke-miterlimit="1" stroke-linejoin="round"/>
</svg>
