<svg width="37" height="36" viewBox="0 0 37 36" fill="none" xmlns="http://www.w3.org/2000/svg">
<path d="M16.2745 16.005C16.1269 15.548 15.994 15.1056 15.8464 14.6486C15.6987 14.1915 15.5658 13.764 15.4477 13.3364C15.3296 12.9236 15.2263 12.5403 15.1229 12.1864H15.0934C14.9605 12.8204 14.7981 13.4544 14.5915 14.0883C14.37 14.796 14.1486 15.5332 13.9123 16.2704C13.7056 17.0223 13.4842 17.7153 13.2627 18.3345H17.0127C16.9241 18.0234 16.806 17.6563 16.6731 17.2715C16.5402 16.8749 16.4074 16.4473 16.2745 16.005ZM29.8865 0.627441H7.00301C3.53358 0.627441 0.728516 3.42872 0.728516 6.89347V28.8614C0.728516 32.3262 3.53358 35.1274 7.00301 35.1274H29.8865C33.3559 35.1274 36.1609 32.3262 36.1609 28.8614V6.89347C36.1609 3.42872 33.3559 0.627441 29.8865 0.627441ZM22.4309 24.9986H19.3438C19.242 25.0133 19.1386 24.9396 19.1091 24.8364L17.8985 21.3274H12.4065L11.2844 24.7922C11.2549 24.9249 11.1368 25.0133 11.0039 25.0001H8.22838C8.06598 25.0001 8.02169 24.9101 8.06598 24.7347L12.8198 11.0659C12.8641 10.9185 12.9084 10.7563 12.9675 10.5794C13.0265 10.2697 13.0561 9.94539 13.0561 9.62103C13.0413 9.54731 13.1003 9.47359 13.1742 9.45885H16.9979C17.116 9.45885 17.1751 9.50308 17.1898 9.5768L22.5785 24.7627C22.6228 24.9234 22.5785 24.9986 22.4309 24.9986ZM27.4505 24.7774C27.4505 24.9396 27.3929 25.0133 27.26 25.0133H24.3649C24.2173 25.0133 24.1434 24.9234 24.1434 24.7774V13.4249C24.1434 13.2774 24.204 13.2185 24.3369 13.2185H27.26C27.3929 13.2185 27.4505 13.2922 27.4505 13.4249V24.7774ZM27.1419 11.464C26.8009 11.8178 26.2989 12.0095 25.797 11.98C25.3098 11.9947 24.8373 11.8031 24.4815 11.464C24.142 11.0954 23.9648 10.6089 23.9796 10.1076C23.9648 9.60629 24.1567 9.13449 24.5096 8.79539C24.8669 8.45629 25.3393 8.27936 25.8265 8.27936C26.4037 8.27936 26.8437 8.45629 27.17 8.79539C27.4948 9.14924 27.6719 9.62103 27.6572 10.1076C27.6719 10.6089 27.4948 11.0954 27.1419 11.464Z" fill="#FF9A00"/>
</svg>
