<svg width="227" height="263" viewBox="0 0 227 263" fill="none" xmlns="http://www.w3.org/2000/svg">
<path d="M224.74 196.41L113.323 131.531L1.90625 196.41L113.323 261.289L224.74 196.41Z" fill="#314FB4" stroke="white" stroke-width="3" stroke-miterlimit="1" stroke-linejoin="round"/>
<path d="M224.741 196.41L113.324 131.531L113.324 1.77344L224.741 66.6521L224.741 196.41Z" fill="#2F4DB2" stroke="white" stroke-width="3" stroke-miterlimit="1" stroke-linejoin="round"/>
<path d="M113.323 131.531L1.90625 196.41L1.90625 66.6521L113.323 1.77344L113.323 131.531Z" fill="#3350B5" stroke="white" stroke-width="3" stroke-miterlimit="1" stroke-linejoin="round"/>
<path d="M113.323 261.288L1.90625 196.41L1.90625 66.6523L113.323 131.531V261.288Z" fill="url(#paint0_linear_1_1405)" stroke="white" stroke-width="3" stroke-miterlimit="1" stroke-linejoin="round"/>
<path d="M113.324 261.288L224.741 196.41L224.741 66.6523L113.324 131.531L113.324 261.288Z" fill="url(#paint1_linear_1_1405)" stroke="white" stroke-width="3" stroke-miterlimit="1" stroke-linejoin="round"/>
<path d="M224.74 66.6521L113.323 1.77344L1.90625 66.6521L113.323 131.531L224.74 66.6521Z" fill="url(#paint2_linear_1_1405)" stroke="white" stroke-width="3" stroke-miterlimit="1" stroke-linejoin="round"/>
<defs>
<linearGradient id="paint0_linear_1_1405" x1="117.307" y1="133.349" x2="11.0759" y2="212.438" gradientUnits="userSpaceOnUse">
<stop stop-color="#8DA9FF"/>
<stop offset="1" stop-color="#5B80F1"/>
</linearGradient>
<linearGradient id="paint1_linear_1_1405" x1="169.033" y1="66.6523" x2="169.033" y2="261.288" gradientUnits="userSpaceOnUse">
<stop stop-color="#2240A7"/>
<stop offset="1" stop-color="#4562C5"/>
</linearGradient>
<linearGradient id="paint2_linear_1_1405" x1="13.1891" y1="63.9388" x2="226.107" y2="69.8371" gradientUnits="userSpaceOnUse">
<stop stop-color="#4979FF"/>
<stop offset="1" stop-color="#87A4F7"/>
</linearGradient>
</defs>
</svg>
