<svg width="227" height="264" viewBox="0 0 227 264" fill="none" xmlns="http://www.w3.org/2000/svg">
<path d="M224.922 196.864L113.505 131.985L2.08789 196.864L113.505 261.743L224.922 196.864Z" fill="#314FB4" stroke="white" stroke-width="3" stroke-miterlimit="1" stroke-linejoin="round"/>
<path d="M224.923 196.864L113.506 131.985L113.506 2.22754L224.923 67.1062L224.923 196.864Z" fill="#2F4DB2" stroke="white" stroke-width="3" stroke-miterlimit="1" stroke-linejoin="round"/>
<path d="M113.505 131.985L2.08789 196.864L2.08789 67.1062L113.505 2.22754L113.505 131.985Z" fill="#3350B5" stroke="white" stroke-width="3" stroke-miterlimit="1" stroke-linejoin="round"/>
<path d="M113.505 261.743L2.08789 196.864L2.08789 67.1064L113.505 131.985V261.743Z" fill="url(#paint0_linear_1_1559)" stroke="white" stroke-width="3" stroke-miterlimit="1" stroke-linejoin="round"/>
<path d="M113.506 261.743L224.923 196.864L224.923 67.1064L113.506 131.985L113.506 261.743Z" fill="url(#paint1_linear_1_1559)" stroke="white" stroke-width="3" stroke-miterlimit="1" stroke-linejoin="round"/>
<path d="M224.922 67.1062L113.505 2.22754L2.08789 67.1062L113.505 131.985L224.922 67.1062Z" fill="url(#paint2_linear_1_1559)" stroke="white" stroke-width="3" stroke-miterlimit="1" stroke-linejoin="round"/>
<defs>
<linearGradient id="paint0_linear_1_1559" x1="117.488" y1="133.803" x2="11.2576" y2="212.892" gradientUnits="userSpaceOnUse">
<stop stop-color="#8DA9FF"/>
<stop offset="1" stop-color="#5B80F1"/>
</linearGradient>
<linearGradient id="paint1_linear_1_1559" x1="169.214" y1="67.1064" x2="169.214" y2="261.743" gradientUnits="userSpaceOnUse">
<stop stop-color="#2240A7"/>
<stop offset="1" stop-color="#4562C5"/>
</linearGradient>
<linearGradient id="paint2_linear_1_1559" x1="13.3708" y1="64.3929" x2="226.289" y2="70.2912" gradientUnits="userSpaceOnUse">
<stop stop-color="#4979FF"/>
<stop offset="1" stop-color="#87A4F7"/>
</linearGradient>
</defs>
</svg>
