<svg width="227" height="263" viewBox="0 0 227 263" fill="none" xmlns="http://www.w3.org/2000/svg">
<path d="M225.196 196.55L113.778 131.671L2.36133 196.55L113.778 261.428L225.196 196.55Z" fill="white" fill-opacity="0.3"/>
<path d="M225.196 196.549L113.779 131.671L113.779 1.91309L225.196 66.7918L225.196 196.549Z" fill="white" fill-opacity="0.3"/>
<path d="M113.778 131.671L2.36133 196.549L2.36133 66.7918L113.778 1.91309L113.778 131.671Z" fill="white" fill-opacity="0.3"/>
<path d="M113.778 261.428L2.36133 196.549L2.36133 66.792L113.778 131.671V261.428Z" fill="white" fill-opacity="0.3" stroke="white" stroke-width="3" stroke-miterlimit="1" stroke-linejoin="round"/>
<path d="M113.779 261.428L225.196 196.549L225.196 66.792L113.779 131.671L113.779 261.428Z" fill="white" fill-opacity="0.3" style="mix-blend-mode:soft-light"/>
<path d="M113.779 261.428L225.196 196.549L225.196 66.792L113.779 131.671L113.779 261.428Z" stroke="white" stroke-width="3" stroke-miterlimit="1" stroke-linejoin="round"/>
<path d="M225.196 66.7918L113.778 1.91309L2.36133 66.7918L113.778 131.671L225.196 66.7918Z" fill="white" fill-opacity="0.3" stroke="white" stroke-width="3" stroke-miterlimit="1" stroke-linejoin="round"/>
</svg>
