<svg width="226" height="263" viewBox="0 0 226 263" fill="none" xmlns="http://www.w3.org/2000/svg">
<path d="M224.498 196.595L113.081 131.716L1.66406 196.595L113.081 261.473L224.498 196.595Z" fill="#314FB4" stroke="white" stroke-width="3" stroke-miterlimit="1" stroke-linejoin="round"/>
<path d="M224.499 196.594L113.082 131.715L113.082 1.95801L224.499 66.8367L224.499 196.594Z" fill="#2F4DB2" stroke="white" stroke-width="3" stroke-miterlimit="1" stroke-linejoin="round"/>
<path d="M113.081 131.715L1.66406 196.594L1.66406 66.8367L113.081 1.95801L113.081 131.715Z" fill="#3350B5" stroke="white" stroke-width="3" stroke-miterlimit="1" stroke-linejoin="round"/>
<path d="M113.081 261.473L1.66406 196.594L1.66406 66.8369L113.081 131.716V261.473Z" fill="url(#paint0_linear_1_1419)" stroke="white" stroke-width="3" stroke-miterlimit="1" stroke-linejoin="round"/>
<path d="M113.082 261.473L224.499 196.594L224.499 66.8369L113.082 131.716L113.082 261.473Z" fill="url(#paint1_linear_1_1419)" stroke="white" stroke-width="3" stroke-miterlimit="1" stroke-linejoin="round"/>
<path d="M224.498 66.8367L113.081 1.95801L1.66406 66.8367L113.081 131.715L224.498 66.8367Z" fill="url(#paint2_linear_1_1419)" stroke="white" stroke-width="3" stroke-miterlimit="1" stroke-linejoin="round"/>
<defs>
<linearGradient id="paint0_linear_1_1419" x1="117.065" y1="133.533" x2="10.8337" y2="212.622" gradientUnits="userSpaceOnUse">
<stop stop-color="#8DA9FF"/>
<stop offset="1" stop-color="#5B80F1"/>
</linearGradient>
<linearGradient id="paint1_linear_1_1419" x1="168.791" y1="66.8369" x2="168.791" y2="261.473" gradientUnits="userSpaceOnUse">
<stop stop-color="#2240A7"/>
<stop offset="1" stop-color="#4562C5"/>
</linearGradient>
<linearGradient id="paint2_linear_1_1419" x1="12.9469" y1="64.1234" x2="225.865" y2="70.0216" gradientUnits="userSpaceOnUse">
<stop stop-color="#4979FF"/>
<stop offset="1" stop-color="#87A4F7"/>
</linearGradient>
</defs>
</svg>
