<svg width="227" height="263" viewBox="0 0 227 263" fill="none" xmlns="http://www.w3.org/2000/svg">
<path d="M225.102 196.342L113.685 131.463L2.26758 196.342L113.685 261.22L225.102 196.342Z" fill="white" fill-opacity="0.3"/>
<path d="M225.101 196.342L113.684 131.463V1.70605L225.101 66.5848V196.342Z" fill="white" fill-opacity="0.3"/>
<path d="M113.683 131.462L2.26563 196.341L2.26563 66.5838L113.683 1.70508V131.462Z" fill="white" fill-opacity="0.3"/>
<path d="M113.683 261.219L2.26563 196.34L2.26562 66.583L113.683 131.462V261.219Z" fill="white" fill-opacity="0.3" stroke="white" stroke-width="3" stroke-miterlimit="1" stroke-linejoin="round"/>
<path d="M113.684 261.22L225.101 196.341V66.584L113.684 131.463V261.22Z" fill="white" fill-opacity="0.3" style="mix-blend-mode:soft-light"/>
<path d="M113.684 261.22L225.101 196.341V66.584L113.684 131.463V261.22Z" stroke="white" stroke-width="3" stroke-miterlimit="1" stroke-linejoin="round"/>
<path d="M225.1 66.5838L113.683 1.70508L2.26563 66.5838L113.683 131.462L225.1 66.5838Z" fill="white" fill-opacity="0.3" stroke="white" stroke-width="3" stroke-miterlimit="1" stroke-linejoin="round"/>
</svg>
