<svg width="227" height="264" viewBox="0 0 227 264" fill="none" xmlns="http://www.w3.org/2000/svg">
<path d="M225.319 196.958L113.901 132.079L2.48438 196.958L113.901 261.837L225.319 196.958Z" fill="#314FB4" stroke="white" stroke-width="3" stroke-miterlimit="1" stroke-linejoin="round"/>
<path d="M225.319 196.957L113.902 132.079L113.902 2.32129L225.319 67.2L225.319 196.957Z" fill="#2F4DB2" stroke="white" stroke-width="3" stroke-miterlimit="1" stroke-linejoin="round"/>
<path d="M113.901 132.079L2.48438 196.957L2.48438 67.2L113.901 2.32129L113.901 132.079Z" fill="#3350B5" stroke="white" stroke-width="3" stroke-miterlimit="1" stroke-linejoin="round"/>
<path d="M113.901 261.836L2.48438 196.958L2.48438 67.2002L113.901 132.079V261.836Z" fill="url(#paint0_linear_1_1566)" stroke="white" stroke-width="3" stroke-miterlimit="1" stroke-linejoin="round"/>
<path d="M113.902 261.836L225.319 196.958L225.319 67.2002L113.902 132.079L113.902 261.836Z" fill="url(#paint1_linear_1_1566)" stroke="white" stroke-width="3" stroke-miterlimit="1" stroke-linejoin="round"/>
<path d="M225.319 67.2L113.901 2.32129L2.48438 67.2L113.901 132.079L225.319 67.2Z" fill="url(#paint2_linear_1_1566)" stroke="white" stroke-width="3" stroke-miterlimit="1" stroke-linejoin="round"/>
<defs>
<linearGradient id="paint0_linear_1_1566" x1="117.885" y1="133.897" x2="11.654" y2="212.985" gradientUnits="userSpaceOnUse">
<stop stop-color="#8DA9FF"/>
<stop offset="1" stop-color="#5B80F1"/>
</linearGradient>
<linearGradient id="paint1_linear_1_1566" x1="169.611" y1="67.2002" x2="169.611" y2="261.836" gradientUnits="userSpaceOnUse">
<stop stop-color="#2240A7"/>
<stop offset="1" stop-color="#4562C5"/>
</linearGradient>
<linearGradient id="paint2_linear_1_1566" x1="13.7673" y1="64.4867" x2="226.686" y2="70.3849" gradientUnits="userSpaceOnUse">
<stop stop-color="#4979FF"/>
<stop offset="1" stop-color="#87A4F7"/>
</linearGradient>
</defs>
</svg>
