<svg width="227" height="264" viewBox="0 0 227 264" fill="none" xmlns="http://www.w3.org/2000/svg">
<path d="M224.895 196.727L113.478 131.849L2.06055 196.727L113.478 261.606L224.895 196.727Z" fill="white" fill-opacity="0.3"/>
<path d="M224.896 196.726L113.479 131.847V2.08984L224.896 66.9686V196.726Z" fill="white" fill-opacity="0.3"/>
<path d="M113.478 131.847L2.06055 196.726L2.06055 66.9686L113.478 2.08984V131.847Z" fill="white" fill-opacity="0.3"/>
<path d="M113.478 261.604L2.06055 196.725L2.06055 66.9678L113.478 131.846V261.604Z" fill="white" fill-opacity="0.3" stroke="white" stroke-width="3" stroke-miterlimit="1" stroke-linejoin="round"/>
<path d="M113.479 261.604L224.896 196.725V66.9678L113.479 131.846V261.604Z" fill="white" fill-opacity="0.3" style="mix-blend-mode:soft-light"/>
<path d="M113.479 261.604L224.896 196.725V66.9678L113.479 131.846V261.604Z" stroke="white" stroke-width="3" stroke-miterlimit="1" stroke-linejoin="round"/>
<path d="M224.895 66.9686L113.478 2.08984L2.06055 66.9686L113.478 131.847L224.895 66.9686Z" fill="white" fill-opacity="0.3" stroke="white" stroke-width="3" stroke-miterlimit="1" stroke-linejoin="round"/>
</svg>
