<svg width="227" height="263" viewBox="0 0 227 263" fill="none" xmlns="http://www.w3.org/2000/svg">
<path d="M225.01 196.475L113.593 131.597L2.17578 196.475L113.593 261.354L225.01 196.475Z" fill="#D1DEFA" stroke="white" stroke-width="3" stroke-miterlimit="1" stroke-linejoin="round"/>
<path d="M225.011 196.475L113.594 131.596L113.594 1.83887L225.011 66.7176L225.011 196.475Z" fill="#D1DEFA" stroke="white" stroke-width="3" stroke-miterlimit="1" stroke-linejoin="round"/>
<path d="M113.593 131.596L2.17578 196.475L2.17578 66.7176L113.593 1.83887L113.593 131.596Z" fill="#D1DEFA" stroke="white" stroke-width="3" stroke-miterlimit="1" stroke-linejoin="round"/>
<path d="M113.144 261.354L1.72656 196.475L1.72656 66.7178L113.144 131.596V261.354Z" fill="url(#paint0_linear_1_1496)" stroke="white" stroke-width="3" stroke-miterlimit="1" stroke-linejoin="round"/>
<path d="M113.145 261.354L224.562 196.475L224.562 66.7178L113.145 131.596L113.145 261.354Z" fill="url(#paint1_linear_1_1496)" stroke="white" stroke-width="3" stroke-miterlimit="1" stroke-linejoin="round"/>
<path d="M224.561 66.7176L113.144 1.83887L1.72656 66.7176L113.144 131.596L224.561 66.7176Z" fill="url(#paint2_linear_1_1496)" stroke="white" stroke-width="3" stroke-miterlimit="1" stroke-linejoin="round"/>
<defs>
<linearGradient id="paint0_linear_1_1496" x1="117.127" y1="133.414" x2="10.8962" y2="212.503" gradientUnits="userSpaceOnUse">
<stop stop-color="#D1DEFA"/>
<stop offset="1" stop-color="#C6D6F2"/>
</linearGradient>
<linearGradient id="paint1_linear_1_1496" x1="168.853" y1="66.7178" x2="168.853" y2="261.354" gradientUnits="userSpaceOnUse">
<stop stop-color="#D4DCEC"/>
<stop offset="1" stop-color="#B3BDD1"/>
</linearGradient>
<linearGradient id="paint2_linear_1_1496" x1="13.0094" y1="64.0042" x2="225.928" y2="69.9025" gradientUnits="userSpaceOnUse">
<stop stop-color="#DCEAFF"/>
<stop offset="1" stop-color="#D9E7FF"/>
</linearGradient>
</defs>
</svg>
