<svg width="227" height="263" viewBox="0 0 227 263" fill="none" xmlns="http://www.w3.org/2000/svg">
<path d="M224.67 196.395L113.253 131.517L1.83594 196.395L113.253 261.274L224.67 196.395Z" fill="white" fill-opacity="0.3"/>
<path d="M224.669 196.396L113.252 131.517V1.75977L224.669 66.6385V196.396Z" fill="white" fill-opacity="0.3"/>
<path d="M113.251 131.516L1.83398 196.395L1.83398 66.6375L113.251 1.75879V131.516Z" fill="white" fill-opacity="0.3"/>
<path d="M113.251 261.273L1.83398 196.394L1.83398 66.6367L113.251 131.515V261.273Z" fill="white" fill-opacity="0.3" stroke="white" stroke-width="3" stroke-miterlimit="1" stroke-linejoin="round"/>
<path d="M113.252 261.274L224.669 196.395V66.6377L113.252 131.516V261.274Z" fill="white" fill-opacity="0.3" style="mix-blend-mode:soft-light"/>
<path d="M113.252 261.274L224.669 196.395V66.6377L113.252 131.516V261.274Z" stroke="white" stroke-width="3" stroke-miterlimit="1" stroke-linejoin="round"/>
<path d="M224.668 66.6375L113.251 1.75879L1.83398 66.6375L113.251 131.516L224.668 66.6375Z" fill="white" fill-opacity="0.3" stroke="white" stroke-width="3" stroke-miterlimit="1" stroke-linejoin="round"/>
</svg>
