<svg width="227" height="263" viewBox="0 0 227 263" fill="none" xmlns="http://www.w3.org/2000/svg">
<path d="M224.948 196.345L113.53 131.466L2.11328 196.345L113.53 261.223L224.948 196.345Z" fill="white" fill-opacity="0.3"/>
<path d="M224.946 196.345L113.529 131.466V1.70898L224.946 66.5877V196.345Z" fill="white" fill-opacity="0.3"/>
<path d="M113.528 131.465L2.11133 196.344L2.11133 66.5867L113.528 1.70801V131.465Z" fill="white" fill-opacity="0.3"/>
<path d="M113.528 261.222L2.11133 196.343L2.11133 66.5859L113.528 131.465V261.222Z" fill="white" fill-opacity="0.3" stroke="white" stroke-width="3" stroke-miterlimit="1" stroke-linejoin="round"/>
<path d="M113.529 261.223L224.946 196.344V66.5869L113.529 131.466V261.223Z" fill="white" fill-opacity="0.3" style="mix-blend-mode:soft-light"/>
<path d="M113.529 261.223L224.946 196.344V66.5869L113.529 131.466V261.223Z" stroke="white" stroke-width="3" stroke-miterlimit="1" stroke-linejoin="round"/>
<path d="M224.946 66.5867L113.528 1.70801L2.11133 66.5867L113.528 131.465L224.946 66.5867Z" fill="white" fill-opacity="0.3" stroke="white" stroke-width="3" stroke-miterlimit="1" stroke-linejoin="round"/>
</svg>
