<svg width="227" height="264" viewBox="0 0 227 264" fill="none" xmlns="http://www.w3.org/2000/svg">
<path d="M224.657 196.637L113.239 131.759L1.82227 196.637L113.239 261.516L224.657 196.637Z" fill="white" fill-opacity="0.3"/>
<path d="M224.657 196.636L113.24 131.757V2L224.657 66.8787V196.636Z" fill="white" fill-opacity="0.3"/>
<path d="M113.239 131.757L1.82227 196.636L1.82227 66.8787L113.239 2V131.757Z" fill="white" fill-opacity="0.3"/>
<path d="M113.239 261.514L1.82227 196.635L1.82227 66.8779L113.239 131.757V261.514Z" fill="white" fill-opacity="0.3" stroke="white" stroke-width="3" stroke-miterlimit="1" stroke-linejoin="round"/>
<path d="M113.24 261.514L224.657 196.635V66.8779L113.24 131.757V261.514Z" fill="white" fill-opacity="0.3" style="mix-blend-mode:soft-light"/>
<path d="M113.24 261.514L224.657 196.635V66.8779L113.24 131.757V261.514Z" stroke="white" stroke-width="3" stroke-miterlimit="1" stroke-linejoin="round"/>
<path d="M224.657 66.8787L113.239 2L1.82227 66.8787L113.239 131.757L224.657 66.8787Z" fill="white" fill-opacity="0.3" stroke="white" stroke-width="3" stroke-miterlimit="1" stroke-linejoin="round"/>
</svg>
