<svg width="33" height="45" viewBox="0 0 33 45" fill="none" xmlns="http://www.w3.org/2000/svg">
<path d="M1.78609 29.61L6.14353 1.72338C6.17479 1.51652 6.27085 1.32475 6.41804 1.1754C6.56522 1.02604 6.75603 0.926715 6.96326 0.891569C7.1705 0.856422 7.3836 0.887248 7.5722 0.979656C7.7608 1.07206 7.91528 1.22134 8.01364 1.40621L12.699 10.153L1.78609 29.61ZM32.7285 36.3786L28.583 10.7121C28.5545 10.5308 28.476 10.3608 28.3561 10.2213C28.2362 10.0818 28.0797 9.97815 27.904 9.92204C27.7283 9.86593 27.5404 9.85953 27.3613 9.90355C27.1822 9.94757 27.0189 10.0403 26.8897 10.1713L0.728516 36.3804L15.203 44.4965C15.6497 44.7463 16.1535 44.8774 16.6659 44.8774C17.1783 44.8774 17.6821 44.7463 18.1288 44.4965L32.7285 36.3786ZM20.9662 13.9809L17.6129 7.59733C17.5283 7.4368 17.4012 7.30235 17.2453 7.20855C17.0894 7.11474 16.9107 7.06516 16.7285 7.06516C16.5463 7.06516 16.3676 7.11474 16.2118 7.20855C16.0559 7.30235 15.9287 7.4368 15.8441 7.59733L1.1228 33.8486L20.9662 13.9809Z" fill="#FFCA28"/>
</svg>
