<svg width="40" height="39" viewBox="0 0 40 39" fill="none" xmlns="http://www.w3.org/2000/svg">
<path d="M19.7285 0.877441C8.95477 0.877441 0.228516 9.60069 0.228516 20.3598C0.228516 28.9694 5.81527 36.2705 13.5616 38.8438C14.5366 39.0272 14.8941 38.4249 14.8941 37.907C14.8941 37.4443 14.8779 36.2185 14.8698 34.595C9.44552 35.7704 8.30152 31.9811 8.30152 31.9811C7.41427 29.7325 6.13214 29.1318 6.13214 29.1318C4.36577 27.9239 6.26864 27.9482 6.26864 27.9482C8.22677 28.0846 9.25539 29.9549 9.25539 29.9549C10.9941 32.9341 13.82 32.0736 14.9348 31.5752C15.1103 30.3154 15.6124 29.4565 16.1698 28.9694C11.8391 28.4824 7.28752 26.8069 7.28752 19.3419C7.28752 17.2151 8.04314 15.4779 9.29439 14.1141C9.07502 13.6222 8.41689 11.6415 9.46502 8.95777C9.46502 8.95777 11.0981 8.43499 14.8275 10.9547C16.3875 10.5212 18.045 10.3069 19.7025 10.2972C21.36 10.3069 23.0175 10.5212 24.5775 10.9547C28.2825 8.43499 29.9156 8.95777 29.9156 8.95777C30.9638 11.6415 30.3056 13.6222 30.1106 14.1141C31.3538 15.4779 32.1094 17.2151 32.1094 19.3419C32.1094 26.8264 27.5513 28.4743 23.2125 28.9532C23.895 29.5377 24.5288 30.7326 24.5288 32.5575C24.5288 35.1649 24.5044 37.2592 24.5044 37.8924C24.5044 38.4038 24.8456 39.0126 25.845 38.8178C33.6466 36.2624 39.2285 28.9565 39.2285 20.3598C39.2285 9.60069 30.4974 0.877441 19.7285 0.877441Z" fill="white"/>
</svg>
