<svg width="40" height="40" viewBox="0 0 40 40" fill="none" xmlns="http://www.w3.org/2000/svg">
<path d="M0.728516 0.377441H39.7285V39.3774H0.728516V0.377441ZM36.5338 30.0759C36.2494 28.2966 35.0908 26.8016 31.6539 25.4073C30.4579 24.8467 29.1286 24.4567 28.7338 23.5548C28.5859 23.0186 28.5631 22.7261 28.659 22.4092C28.9028 21.3594 30.1459 21.0442 31.1209 21.3367C31.7546 21.5317 32.3396 22.0192 32.7069 22.7992C34.3871 21.7007 34.3871 21.7007 35.5588 20.9711C35.12 20.2886 34.9023 19.9944 34.6065 19.7036C33.5828 18.5579 32.2194 17.9729 30.0013 18.0233L28.8556 18.1679C27.7571 18.4361 26.7106 19.0211 26.0769 19.8011C24.2244 21.8989 24.759 25.5552 27.0015 27.0664C29.2196 28.7239 32.4631 29.0879 32.8775 30.6496C33.2675 32.5508 31.4638 33.1602 29.6828 32.9408C28.3649 32.6483 27.6353 31.9886 26.8309 30.7698L23.8571 32.4777C24.1984 33.2577 24.5884 33.5973 25.1734 34.2798C28.0009 37.1333 35.0696 36.9871 36.3388 32.6483C36.3859 32.5021 36.7288 31.5027 36.459 29.9671L36.5338 30.0759ZM21.9364 18.3028H18.2834C18.2834 21.4521 18.2688 24.5818 18.2688 27.7359C18.2688 29.7379 18.3711 31.5758 18.0445 32.1413C17.5083 33.2609 16.127 33.1179 15.4998 32.9213C14.8563 32.6028 14.5296 32.1641 14.151 31.5319C14.0486 31.3613 13.9723 31.2134 13.9446 31.2134L10.979 33.0416C11.4746 34.0653 12.1978 34.9461 13.1305 35.5067C14.5199 36.3354 16.387 36.6036 18.3419 36.1648C19.6143 35.7976 20.7111 35.0419 21.2848 33.8719C22.1135 32.3607 21.938 30.5082 21.9299 28.4347C21.9494 25.0969 21.9299 21.7576 21.9299 18.3938L21.9364 18.3028Z" fill="#F7DF1E"/>
</svg>
