<svg width="23" height="33" viewBox="0 0 23 33" fill="none" xmlns="http://www.w3.org/2000/svg">
<path d="M16.8082 12.8521H10.7587V0.877441H16.8082C20.073 0.877441 22.7285 3.56277 22.7285 6.86411C22.7285 10.1654 20.073 12.8521 16.8082 12.8521ZM12.6983 10.8908H16.8082C19.0036 10.8908 20.7889 9.08411 20.7889 6.86544C20.7889 4.64678 19.0023 2.84011 16.8082 2.84011H12.6983V10.8908ZM12.6983 12.8521H6.65012C3.38539 12.8521 0.729834 10.1668 0.729834 6.86544C0.729834 3.56411 3.38539 0.877441 6.65012 0.877441H12.6996V12.8521H12.6983ZM6.65012 2.83877C4.45474 2.83877 2.66942 4.64544 2.66942 6.86411C2.66942 9.08278 4.45474 10.8908 6.65012 10.8908H10.76V2.83877H6.65012ZM12.6983 22.8641H6.65012C3.38539 22.8641 0.729834 20.1788 0.729834 16.8774C0.729834 13.5761 3.38539 10.8908 6.65012 10.8908H12.6996V22.8641H12.6983ZM6.65012 12.8521C4.45474 12.8521 2.66942 14.6588 2.66942 16.8774C2.66942 19.0961 4.45605 20.9028 6.65012 20.9028H10.76V12.8521H6.65012ZM6.68177 32.8774C3.3999 32.8774 0.728516 30.1921 0.728516 26.8908C0.728516 23.5894 3.38407 20.9041 6.6488 20.9041H12.6983V26.8254C12.6983 30.1628 9.99924 32.8774 6.68177 32.8774ZM6.65012 22.8641C5.5948 22.8655 4.58311 23.2901 3.83688 24.0447C3.09066 24.7993 2.67082 25.8223 2.66942 26.8894C2.66942 29.1094 4.46924 30.9148 6.68309 30.9148C8.93121 30.9148 10.7614 29.0801 10.7614 26.8241V22.8641H6.65012ZM16.8082 22.8641H16.679C13.4143 22.8641 10.7587 20.1788 10.7587 16.8774C10.7587 13.5761 13.4143 10.8908 16.679 10.8908H16.8082C20.073 10.8908 22.7285 13.5761 22.7285 16.8774C22.7285 20.1788 20.073 22.8641 16.8082 22.8641ZM16.6803 12.8521C14.4849 12.8521 12.6996 14.6588 12.6996 16.8774C12.6996 19.0961 14.4863 20.9028 16.6803 20.9028H16.8095C19.0049 20.9028 20.7902 19.0961 20.7902 16.8774C20.7902 14.6588 19.0023 12.8521 16.8082 12.8521H16.6803Z" fill="#F24E1E"/>
</svg>
