<svg width="35" height="34" viewBox="0 0 35 34" fill="none" xmlns="http://www.w3.org/2000/svg">
<path d="M15.1077 11.8287C14.5759 11.6212 14.0068 11.5252 13.436 11.5467C12.9211 11.536 12.406 11.5454 11.8918 11.5749V16.3133L12.4443 16.3415H13.1952C13.7477 16.3415 14.3002 16.2569 14.8243 16.0877C15.2777 15.9608 15.6743 15.6928 15.986 15.3403C16.2835 14.9877 16.4252 14.5082 16.4252 13.8877C16.4572 13.4491 16.3463 13.0119 16.1089 12.641C15.8716 12.2701 15.5205 11.9853 15.1077 11.8287ZM28.7077 0.377441H6.74935C5.15252 0.377441 3.6211 1.00891 2.49198 2.13292C1.36285 3.25694 0.728516 4.78143 0.728516 6.37103L0.728516 27.3839C0.728516 30.698 3.42018 33.3774 6.74935 33.3774H28.7077C32.0368 33.3774 34.7285 30.698 34.7285 27.3839V6.37103C34.7285 3.05693 32.0368 0.377441 28.7077 0.377441ZM18.6635 16.8069C18.0968 17.5967 17.3035 18.189 16.3827 18.5274C15.4193 18.88 14.3568 19.0069 13.1952 19.0069L12.4868 18.9928L11.8777 18.9787V23.5056C11.8817 23.529 11.8808 23.5529 11.8749 23.5758C11.8691 23.5987 11.8585 23.6202 11.8438 23.6388C11.8291 23.6574 11.8107 23.6727 11.7897 23.6838C11.7687 23.6949 11.7456 23.7015 11.7218 23.7031H8.97352C8.86018 23.7031 8.80352 23.6467 8.80352 23.5197V9.00821C8.80352 8.90949 8.84602 8.85308 8.94518 8.85308L9.73852 8.83898L10.8152 8.81077L12.0477 8.78257L13.3368 8.76847C14.4985 8.76847 15.4618 8.90949 16.2552 9.20565C16.9635 9.44539 17.6152 9.84026 18.1535 10.3621C18.6068 10.8133 18.961 11.3633 19.1877 11.9697C19.4002 12.5621 19.5135 13.1685 19.5135 13.8031C19.5135 15.0159 19.2302 16.0172 18.6635 16.8069ZM28.3252 12.3646V15.1146C28.3252 15.2274 28.2543 15.2697 28.0985 15.2697C27.1638 15.2359 26.2337 15.4144 25.3785 15.7915C25.1093 15.9185 24.8543 16.0877 24.656 16.3133V23.5056C24.656 23.6467 24.5993 23.7031 24.4718 23.7031H21.681C21.6549 23.7071 21.6283 23.7058 21.6027 23.6994C21.5771 23.693 21.5531 23.6816 21.532 23.6659C21.5109 23.6501 21.4931 23.6303 21.4798 23.6076C21.4665 23.585 21.4578 23.5599 21.4543 23.5338V15.6646L21.4402 14.6069L21.4118 13.5069C21.4118 13.1826 21.3835 12.8723 21.3552 12.548C21.3503 12.5146 21.3577 12.4806 21.3759 12.4521C21.3941 12.4236 21.4219 12.4026 21.4543 12.3928H23.976C24.1177 12.3928 24.231 12.4915 24.2593 12.6185C24.3874 13.0389 24.4495 13.4766 24.4435 13.9159C24.8685 13.4223 25.3927 13.0133 25.9735 12.7031C26.632 12.3389 27.3736 12.1495 28.1268 12.1531C28.226 12.139 28.311 12.2095 28.3252 12.3082V12.3646Z" fill="#9999FF"/>
</svg>
