<svg width="36" height="35" viewBox="0 0 36 35" fill="none" xmlns="http://www.w3.org/2000/svg">
<path d="M15.0931 12.6762C14.5535 12.4583 13.9702 12.3711 13.3723 12.3856C12.9931 12.3856 12.6577 12.3856 12.3806 12.4002C12.0889 12.3856 11.8848 12.4002 11.7827 12.4147V17.2969C11.9868 17.3115 12.1764 17.326 12.3514 17.326H13.1243C13.6931 17.326 14.2618 17.2388 14.8014 17.0645C15.2681 16.9337 15.6764 16.6576 15.9973 16.2943C16.3035 15.9311 16.4493 15.437 16.4493 14.7977C16.4639 14.3472 16.3473 13.8968 16.1139 13.5045C15.866 13.1267 15.516 12.8361 15.0931 12.6762ZM29.5306 0.877441H6.92643C3.49935 0.877441 0.728516 3.63824 0.728516 7.05292V28.702C0.728516 32.1166 3.49935 34.8774 6.92643 34.8774H29.5306C32.9577 34.8774 35.7285 32.1166 35.7285 28.702V7.05292C35.7285 3.63824 32.9577 0.877441 29.5306 0.877441ZM18.7521 17.8055C18.1702 18.6192 17.3535 19.2295 16.4056 19.5782C15.4139 19.9415 14.3202 20.0723 13.1243 20.0723C12.7743 20.0723 12.541 20.0723 12.3952 20.0577C12.2493 20.0432 12.0452 20.0432 11.7681 20.0432V24.7061C11.7827 24.8078 11.7098 24.8964 11.6077 24.9109H8.77852C8.66185 24.9109 8.60352 24.8514 8.60352 24.7206V9.77013C8.60352 9.66842 8.64727 9.61029 8.74935 9.61029C8.99727 9.61029 9.2306 9.61029 9.56602 9.59576C9.91602 9.58123 10.2806 9.58123 10.6743 9.5667C11.0681 9.55217 11.491 9.55217 11.9431 9.53764C12.3952 9.52311 12.8327 9.52311 13.2702 9.52311C14.466 9.52311 15.4577 9.66842 16.2743 9.97356C17.0035 10.2206 17.6743 10.6274 18.2285 11.1651C18.6952 11.63 19.0598 12.1967 19.2931 12.8215C19.5104 13.4318 19.6271 14.0566 19.6271 14.7105C19.6285 15.9601 19.3368 16.9918 18.7521 17.8055ZM29.0931 23.4579C28.6848 24.0391 28.1146 24.4881 27.4598 24.7526C26.7452 25.0563 25.8702 25.2146 24.8187 25.2146C24.1493 25.2146 23.4916 25.158 22.8368 25.0272C22.3264 24.9386 21.816 24.7802 21.3493 24.5622C21.2473 24.5055 21.1729 24.4038 21.1875 24.2876V21.7593C21.1875 21.7171 21.2035 21.6576 21.2473 21.6285C21.2896 21.5994 21.3348 21.614 21.3785 21.643C21.9473 21.9772 22.5452 22.2112 23.1868 22.355C23.7396 22.5003 24.3229 22.573 24.9077 22.573C25.4618 22.573 25.8556 22.4989 26.1181 22.3681C26.3514 22.2664 26.5119 22.0194 26.5119 21.7578C26.5119 21.5529 26.3952 21.3655 26.1618 21.1766C25.9285 20.9892 25.4487 20.7712 24.7341 20.4922C23.9904 20.2307 23.3064 19.8819 22.6633 19.4475C22.2112 19.1263 21.8335 18.7064 21.5535 18.2124C21.3216 17.7474 21.205 17.2388 21.2196 16.7288C21.2196 16.104 21.3946 15.5082 21.7169 14.9706C22.0814 14.3894 22.6196 13.9244 23.2466 13.6338C23.9306 13.2865 24.791 13.1267 25.8264 13.1267C26.4243 13.1267 27.0368 13.1703 27.6348 13.2575C28.0723 13.3156 28.4952 13.4318 28.8889 13.5917C28.9458 13.6062 29.0056 13.6643 29.0348 13.7224C29.0493 13.7806 29.0639 13.8387 29.0639 13.8968V16.2653C29.0639 16.3234 29.0348 16.3815 28.991 16.4106C28.8598 16.4396 28.7868 16.4396 28.7285 16.4106C28.291 16.1781 27.8243 16.0183 27.3285 15.9165C26.7889 15.8003 26.2494 15.7276 25.6952 15.7276C25.4035 15.7131 25.0973 15.7567 24.8187 15.8294C24.6306 15.873 24.4687 15.9747 24.3666 16.12C24.2937 16.2362 24.25 16.3815 24.25 16.5123C24.25 16.6431 24.3083 16.7738 24.3973 16.8901C24.5285 17.0499 24.7021 17.1807 24.8931 17.2824C25.2271 17.4568 25.5785 17.6166 25.9271 17.7619C26.716 18.0235 27.4743 18.3867 28.1743 18.8227C28.6556 19.1263 29.0493 19.5346 29.325 20.0287C29.5583 20.4908 29.675 21.0022 29.6604 21.5239C29.6764 22.2083 29.4723 22.8897 29.0931 23.4579Z" fill="#31A8FF"/>
</svg>
