<svg width="41" height="37" viewBox="0 0 41 37" fill="none" xmlns="http://www.w3.org/2000/svg">
<path d="M24.4452 18.8817C24.4452 19.8801 24.0528 20.8378 23.3543 21.5439C22.6557 22.2501 21.7083 22.6471 20.7202 22.6475C19.7318 22.6475 18.7839 22.2508 18.085 21.5445C17.3861 20.8383 16.9935 19.8804 16.9935 18.8817C16.9935 17.8832 17.3859 16.9256 18.0844 16.2194C18.783 15.5132 19.7304 15.1162 20.7185 15.1158C21.7069 15.1158 22.6548 15.5125 23.3537 16.2188C24.0526 16.925 24.4452 17.8829 24.4452 18.8817ZM28.8585 0.877441C26.6152 0.877441 23.6802 2.49428 20.7118 5.29344C17.7452 2.50944 14.8085 0.911126 12.5668 0.911126C11.8835 0.911126 11.2618 1.06776 10.7235 1.37934C8.43185 2.71492 7.91852 6.8766 9.10185 12.0993C4.02852 13.6825 0.728516 16.2139 0.728516 18.8817C0.728516 21.5595 4.04518 24.0977 9.13352 25.669C7.96018 30.912 8.48352 35.0804 10.7802 36.4143C11.3135 36.7292 11.9302 36.8774 12.6168 36.8774C14.8585 36.8774 17.7952 35.2606 20.7635 32.4581C23.7302 35.2438 26.6668 36.8421 28.9085 36.8421C29.5919 36.8421 30.2135 36.6905 30.7518 36.3789C33.0418 35.045 33.5568 30.8833 32.3735 25.6589C37.4285 24.0892 40.7285 21.5528 40.7285 18.8817C40.7285 16.2038 37.4118 13.6657 32.3235 12.0909C33.4968 6.85302 32.9735 2.68123 30.6768 1.34565C30.1468 1.03576 29.5318 0.879126 28.8585 0.877441ZM28.8502 2.71323V2.72334C29.2252 2.72334 29.5268 2.79744 29.7802 2.93723C30.8902 3.5806 31.3718 6.02776 30.9968 9.17555C30.9068 9.95028 30.7602 10.7671 30.5802 11.6008C28.9802 11.2033 27.2368 10.8985 25.4018 10.7014C24.3018 9.17723 23.1602 7.79281 22.0102 6.58018C24.6635 4.08755 27.1552 2.71997 28.8518 2.71492L28.8502 2.71323ZM12.5668 2.74692C14.2535 2.74692 16.7568 4.10776 19.4168 6.58692C18.2735 7.79955 17.1335 9.17555 16.0502 10.6998C14.2052 10.8968 12.4602 11.2017 10.8618 11.6059C10.6752 10.7806 10.5368 9.98228 10.4385 9.21428C10.0552 6.06818 10.5285 3.6227 11.6285 2.97091C11.9452 2.81934 12.2952 2.75534 12.5668 2.74692ZM20.7035 7.88376C21.4618 8.67197 22.2202 9.55449 22.9702 10.5179C22.2368 10.4842 21.4868 10.4606 20.7285 10.4606C19.9618 10.4606 19.2035 10.4774 18.4618 10.5179C19.1952 9.55449 19.9535 8.67365 20.7035 7.88376ZM20.7285 12.3065C21.9618 12.3065 23.1902 12.3638 24.3985 12.4631C25.0752 13.4433 25.7352 14.4892 26.3702 15.5958C26.9902 16.6737 27.5535 17.7684 28.0668 18.8732C27.5535 19.9764 26.9902 21.0795 26.3785 22.1574C25.7452 23.269 25.0902 24.3267 24.4118 25.3069C23.1985 25.413 21.9685 25.472 20.7285 25.472C19.4952 25.472 18.2668 25.413 17.0585 25.3153C16.3818 24.3351 15.7218 23.2875 15.0868 22.1827C14.4668 21.1048 13.9035 20.0101 13.3902 18.9052C13.8952 17.7987 14.4668 16.6939 15.0785 15.6143C15.7118 14.5027 16.3668 13.4484 17.0452 12.4682C18.2585 12.3604 19.4885 12.3031 20.7285 12.3031V12.3065ZM14.6702 12.7343C14.2702 13.3692 13.8702 14.0193 13.4968 14.688C13.1218 15.3448 12.7718 16.005 12.4385 16.6652C11.9968 15.5604 11.6218 14.4589 11.3118 13.3861C12.3785 13.1334 13.5035 12.9078 14.6702 12.7343ZM26.7702 12.7343C27.9285 12.9078 29.0452 13.1217 30.1135 13.3861C29.8135 14.4505 29.4385 15.5452 29.0135 16.6417C28.6802 15.9848 28.3302 15.3229 27.9468 14.6644C27.5718 14.0042 27.1718 13.3608 26.7718 12.7343H26.7702ZM31.8752 13.8711C32.6818 14.1238 33.4485 14.405 34.1668 14.7099C37.0535 15.9562 38.9202 17.5865 38.9202 18.88C38.9118 20.1734 37.0452 21.8105 34.1585 23.0484C33.4585 23.3515 32.6918 23.6244 31.9002 23.8787C31.4335 22.2652 30.8235 20.5844 30.0668 18.8598C30.8168 17.1469 31.4168 15.4745 31.8752 13.8678V13.8711ZM9.55018 13.8779C10.0135 15.4947 10.6252 17.1739 11.3835 18.8968C10.6335 20.6097 10.0302 22.2821 9.57352 23.8888C8.76685 23.6362 8.00018 23.3532 7.29018 23.0467C4.40352 21.8054 2.53685 20.1734 2.53685 18.88C2.53685 17.5865 4.40352 15.9461 7.29018 14.7099C7.99018 14.4067 8.75685 14.1339 9.55018 13.8779ZM29.0135 21.0863C29.4552 22.1928 29.8302 23.296 30.1402 24.3671C29.0735 24.6315 27.9468 24.8555 26.7802 25.024C27.1802 24.3924 27.5802 23.7406 27.9552 23.0737C28.3302 22.4168 28.6785 21.7465 29.0135 21.0863ZM12.4385 21.12C12.7718 21.7802 13.1218 22.4387 13.5052 23.0989C13.8885 23.7558 14.2802 24.3991 14.6802 25.024C13.5218 24.8522 12.4052 24.6366 11.3368 24.3739C11.6368 23.3128 12.0135 22.2147 12.4368 21.1183L12.4385 21.12ZM30.5952 26.1507C30.7818 26.981 30.9285 27.781 31.0185 28.5473C31.4018 31.6934 30.9285 34.1389 29.8285 34.7924C29.5835 34.944 29.2652 35.008 28.8902 35.008C27.2035 35.008 24.7002 33.6488 22.0402 31.168C23.1835 29.9553 24.3235 28.581 25.4068 27.0585C27.2518 26.8598 28.9968 26.5549 30.5952 26.1507ZM10.8785 26.1675C12.4785 26.5617 14.2218 26.8665 16.0568 27.0635C17.1568 28.5878 18.2985 29.9722 19.4485 31.1831C16.7902 33.6808 14.2952 35.0484 12.5985 35.0484C12.2318 35.04 11.9218 34.9642 11.6768 34.8261C10.5668 34.1861 10.0852 31.7372 10.4602 28.5894C10.5502 27.8147 10.6985 26.9995 10.8785 26.1675ZM18.4785 27.2454C19.2118 27.2791 19.9618 27.3027 20.7202 27.3027C21.4868 27.3027 22.2452 27.2859 22.9868 27.2454C22.2535 28.2088 21.4952 29.0897 20.7452 29.8812C19.9868 29.0897 19.2285 28.2088 18.4785 27.2454Z" fill="#61DAFB"/>
</svg>
