<svg width="39" height="39" viewBox="0 0 39 39" fill="none" xmlns="http://www.w3.org/2000/svg">
<path d="M19.7285 0.877441C30.2213 0.877441 38.7285 9.38469 38.7285 19.8774C38.7285 30.3702 30.2213 38.8774 19.7285 38.8774C9.23577 38.8774 0.728516 30.3702 0.728516 19.8774C0.728516 9.38469 9.23577 0.877441 19.7285 0.877441ZM15.9523 26.2076C16.2293 27.2289 16.1993 28.1836 15.9143 29.0449L15.8113 29.3299C15.7733 29.4265 15.729 29.5199 15.6878 29.6086C15.4662 30.0678 15.1717 30.4953 14.8091 30.8911C13.7039 32.0929 12.1618 32.5489 11.4999 32.1657C10.7874 31.7509 11.1421 30.0519 12.4246 28.6982C13.8037 27.2447 15.7813 26.3089 15.7813 26.3089V26.3042L15.9523 26.2076ZM31.6447 9.01103C30.7865 5.63378 25.1894 4.52386 19.8932 6.40644C16.7439 7.52586 13.3318 9.28494 10.8793 11.5792C7.96118 14.3041 7.49727 16.6791 7.68885 17.6719C8.36493 21.1726 13.1624 23.4621 15.1353 25.161V25.1705C14.5542 25.4555 10.2966 27.5914 9.2991 29.8018C8.23035 32.1293 9.46535 33.7934 10.2728 34.0055C12.7666 34.6959 15.3316 33.4355 16.7091 31.3946C18.0391 29.398 17.9219 26.833 17.3488 25.5743C18.1341 25.3605 19.0588 25.2655 20.2463 25.4096C23.5728 25.7896 24.2379 27.8796 24.0938 28.7346C23.9513 29.588 23.2657 30.0868 23.0266 30.2293C22.7891 30.3734 22.7178 30.4193 22.74 30.5159C22.7638 30.6584 22.8841 30.6584 23.0725 30.6346C23.3338 30.5871 24.8078 29.9221 24.8791 28.3055C24.9503 26.263 23.0013 23.9846 19.5353 24.0305C18.1103 24.0559 17.2063 24.1746 16.5666 24.4359C16.5191 24.3646 16.47 24.3171 16.4003 24.2696C14.2628 21.9659 10.2966 20.3509 10.4628 17.2871C10.5103 16.1709 10.9141 13.2274 18.0628 9.66494C23.9291 6.74211 28.6094 7.55119 29.4169 9.33244C30.5775 11.8721 26.9216 16.5999 20.8178 17.2871C18.4903 17.5484 17.2791 16.6474 16.9688 16.3134C16.6378 15.9571 16.5903 15.9334 16.4716 16.0062C16.2816 16.1012 16.4003 16.4099 16.4716 16.5999C16.6616 17.0749 17.3978 17.9062 18.6819 18.3337C19.7966 18.6899 22.5294 18.9021 25.8069 17.6212C29.4866 16.1978 32.3603 12.2299 31.5291 8.90494L31.6447 9.01103Z" fill="#CC6699"/>
</svg>
