<svg width="2347" height="2799" viewBox="0 0 2347 2799" fill="none" xmlns="http://www.w3.org/2000/svg">
<g id="g1">
<path d="M1519.85 1635.85L1163 1428.05L806.15 1635.85L1163 1843.64L1519.85 1635.85Z" fill="white" fill-opacity="0.5" stroke="#FFEF01" stroke-width="7" stroke-miterlimit="1" stroke-linejoin="round"/>
<path d="M1519.85 1635.85L1163 1428.05V1012.46L1519.85 1220.26V1635.85Z" fill="white" fill-opacity="0.5" stroke="#FFEF01" stroke-width="7" stroke-miterlimit="1" stroke-linejoin="round"/>
<path d="M1163 1428.05L806.15 1635.85L806.15 1220.26L1163 1012.46V1428.05Z" fill="white" fill-opacity="0.5" stroke="#FFEF01" stroke-width="7" stroke-miterlimit="1" stroke-linejoin="round"/>
<path d="M1163 1843.64L806.15 1635.85V1220.26L1163 1428.05V1843.64Z" fill="white" fill-opacity="0.5" stroke="#FFEF01" stroke-width="7" stroke-miterlimit="1" stroke-linejoin="round"/>
<path d="M1163 1843.64L1519.85 1635.85V1220.26L1163 1428.05L1163 1843.64Z" fill="white" fill-opacity="0.5" stroke="#FFEF01" stroke-width="7" stroke-miterlimit="1" stroke-linejoin="round"/>
<path d="M1519.85 1220.26L1163 1012.46L806.15 1220.26L1163 1428.05L1519.85 1220.26Z" fill="white" fill-opacity="0.5" stroke="#FFEF01" stroke-width="7" stroke-miterlimit="1" stroke-linejoin="round"/>
</g>
<g id="g2">
<path d="M1519.85 1133L1163 925.208L806.15 1133L1163 1340.8L1519.85 1133Z" fill="#FFEF01" fill-opacity="0.5" stroke="white" stroke-width="7" stroke-miterlimit="1" stroke-linejoin="round"/>
<path d="M1519.85 1133L1163 925.208V509.616L1519.85 717.412V1133Z" fill="#FFEF01" fill-opacity="0.5" stroke="white" stroke-width="7" stroke-miterlimit="1" stroke-linejoin="round"/>
<path d="M1163 925.208L806.15 1133L806.15 717.412L1163 509.616V925.208Z" fill="#FFEF01" fill-opacity="0.5" stroke="white" stroke-width="7" stroke-miterlimit="1" stroke-linejoin="round"/>
<path d="M1163 1340.8L806.15 1133V717.412L1163 925.208V1340.8Z" fill="#FFEF01" fill-opacity="0.5" stroke="white" stroke-width="7" stroke-miterlimit="1" stroke-linejoin="round"/>
<path d="M1163 1340.8L1519.85 1133V717.412L1163 925.208L1163 1340.8Z" fill="#FFEF01" fill-opacity="0.5" stroke="white" stroke-width="7" stroke-miterlimit="1" stroke-linejoin="round"/>
<path d="M1519.85 717.412L1163 509.616L806.15 717.412L1163 925.208L1519.85 717.412Z" fill="#FFEF01" fill-opacity="0.5" stroke="white" stroke-width="7" stroke-miterlimit="1" stroke-linejoin="round"/>
</g>
<g id="g3">
<path d="M1519.85 626.955L1163 419.159L806.15 626.955L1163 834.75L1519.85 626.955Z" fill="#FFEF01" fill-opacity="0.5" stroke="white" stroke-width="7" stroke-miterlimit="1" stroke-linejoin="round"/>
<path d="M1519.85 626.955L1163 419.159V3.56738L1519.85 211.363V626.955Z" fill="#FFEF01" fill-opacity="0.5" stroke="white" stroke-width="7" stroke-miterlimit="1" stroke-linejoin="round"/>
<path d="M1163 419.159L806.15 626.955L806.15 211.363L1163 3.56738V419.159Z" fill="#FFEF01" fill-opacity="0.5" stroke="white" stroke-width="7" stroke-miterlimit="1" stroke-linejoin="round"/>
<path d="M1163 834.751L806.15 626.955V211.363L1163 419.159V834.751Z" fill="#FFEF01" fill-opacity="0.5" stroke="white" stroke-width="7" stroke-miterlimit="1" stroke-linejoin="round"/>
<path d="M1163 834.751L1519.85 626.955V211.363L1163 419.159L1163 834.751Z" fill="#FFEF01" fill-opacity="0.5" stroke="white" stroke-width="7" stroke-miterlimit="1" stroke-linejoin="round"/>
<path d="M1519.85 211.363L1163 3.56738L806.15 211.363L1163 419.159L1519.85 211.363Z" fill="#FFEF01" fill-opacity="0.5" stroke="white" stroke-width="7" stroke-miterlimit="1" stroke-linejoin="round"/>
</g>
<g id="g4">
<path d="M1122.71 1869.65L765.857 1661.86L409.006 1869.65L765.857 2077.45L1122.71 1869.65Z" fill="white" fill-opacity="0.5" stroke="#FFEF01" stroke-width="7" stroke-miterlimit="1" stroke-linejoin="round"/>
<path d="M1122.71 1869.65L765.855 1661.86L765.855 1246.27L1122.71 1454.06V1869.65Z" fill="white" fill-opacity="0.5" stroke="#FFEF01" stroke-width="7" stroke-miterlimit="1" stroke-linejoin="round"/>
<path d="M765.857 1661.86L409.006 1869.65L409.006 1454.06L765.857 1246.27V1661.86Z" fill="white" fill-opacity="0.5" stroke="#FFEF01" stroke-width="7" stroke-miterlimit="1" stroke-linejoin="round"/>
<path d="M765.857 2077.45L409.006 1869.65V1454.06L765.857 1661.86V2077.45Z" fill="white" fill-opacity="0.5" stroke="#FFEF01" stroke-width="7" stroke-miterlimit="1" stroke-linejoin="round"/>
<path d="M765.855 2077.45L1122.71 1869.65V1454.06L765.855 1661.86L765.855 2077.45Z" fill="white" fill-opacity="0.5" stroke="#FFEF01" stroke-width="7" stroke-miterlimit="1" stroke-linejoin="round"/>
<path d="M1122.71 1454.06L765.857 1246.27L409.006 1454.06L765.857 1661.86L1122.71 1454.06Z" fill="white" fill-opacity="0.5" stroke="#FFEF01" stroke-width="7" stroke-miterlimit="1" stroke-linejoin="round"/>
</g>
<g id="g5">
<path d="M1122.71 1366.81L765.857 1159.01L409.006 1366.81L765.857 1574.6L1122.71 1366.81Z" fill="#FFEF01" fill-opacity="0.5" stroke="white" stroke-width="7" stroke-miterlimit="1" stroke-linejoin="round"/>
<path d="M1122.71 1366.81L765.855 1159.01L765.855 743.422L1122.71 951.218V1366.81Z" fill="#FFEF01" fill-opacity="0.5" stroke="white" stroke-width="7" stroke-miterlimit="1" stroke-linejoin="round"/>
<path d="M765.857 1159.01L409.006 1366.81L409.006 951.218L765.857 743.422V1159.01Z" fill="#FFEF01" fill-opacity="0.5" stroke="white" stroke-width="7" stroke-miterlimit="1" stroke-linejoin="round"/>
<path d="M765.857 1574.6L409.006 1366.81V951.217L765.857 1159.01V1574.6Z" fill="#FFEF01" fill-opacity="0.5" stroke="white" stroke-width="7" stroke-miterlimit="1" stroke-linejoin="round"/>
<path d="M765.855 1574.6L1122.71 1366.81V951.217L765.855 1159.01L765.855 1574.6Z" fill="#FFEF01" fill-opacity="0.5" stroke="white" stroke-width="7" stroke-miterlimit="1" stroke-linejoin="round"/>
<path d="M1122.71 951.218L765.857 743.422L409.006 951.218L765.857 1159.01L1122.71 951.218Z" fill="#FFEF01" fill-opacity="0.5" stroke="white" stroke-width="7" stroke-miterlimit="1" stroke-linejoin="round"/>
</g>
<g id="g6">
<path d="M1122.71 860.76L765.857 652.964L409.006 860.76L765.857 1068.56L1122.71 860.76Z" fill="white" fill-opacity="0.5" stroke="#FFEF01" stroke-width="7" stroke-miterlimit="1" stroke-linejoin="round"/>
<path d="M1122.71 860.76L765.855 652.965L765.855 237.373L1122.71 445.169V860.76Z" fill="white" fill-opacity="0.5" stroke="#FFEF01" stroke-width="7" stroke-miterlimit="1" stroke-linejoin="round"/>
<path d="M765.857 652.965L409.006 860.76L409.006 445.169L765.857 237.373V652.965Z" fill="white" fill-opacity="0.5" stroke="#FFEF01" stroke-width="7" stroke-miterlimit="1" stroke-linejoin="round"/>
<path d="M765.857 1068.56L409.006 860.76V445.168L765.857 652.964V1068.56Z" fill="white" fill-opacity="0.5" stroke="#FFEF01" stroke-width="7" stroke-miterlimit="1" stroke-linejoin="round"/>
<path d="M765.855 1068.56L1122.71 860.76V445.168L765.855 652.964L765.855 1068.56Z" fill="white" fill-opacity="0.5" stroke="#FFEF01" stroke-width="7" stroke-miterlimit="1" stroke-linejoin="round"/>
<path d="M1122.71 445.169L765.857 237.373L409.006 445.169L765.857 652.965L1122.71 445.169Z" fill="white" fill-opacity="0.5" stroke="#FFEF01" stroke-width="7" stroke-miterlimit="1" stroke-linejoin="round"/>
</g>
<g id="g7">
<path d="M717.706 2106.78L360.855 1898.98L4.00391 2106.78L360.855 2314.57L717.706 2106.78Z" fill="white" fill-opacity="0.5" stroke="#FFEF01" stroke-width="7" stroke-miterlimit="1" stroke-linejoin="round"/>
<path d="M717.704 2106.78L360.854 1898.98L360.854 1483.39L717.704 1691.19L717.704 2106.78Z" fill="white" fill-opacity="0.5" stroke="#FFEF01" stroke-width="7" stroke-miterlimit="1" stroke-linejoin="round"/>
<path d="M360.855 1898.98L4.00391 2106.78L4.00391 1691.19L360.855 1483.39L360.855 1898.98Z" fill="white" fill-opacity="0.5" stroke="#FFEF01" stroke-width="7" stroke-miterlimit="1" stroke-linejoin="round"/>
<path d="M360.855 2314.57L4.00391 2106.78V1691.19L360.855 1898.98V2314.57Z" fill="white" fill-opacity="0.5" stroke="#FFEF01" stroke-width="7" stroke-miterlimit="1" stroke-linejoin="round"/>
<path d="M360.854 2314.57L717.704 2106.78V1691.19L360.854 1898.98L360.854 2314.57Z" fill="white" fill-opacity="0.5" stroke="#FFEF01" stroke-width="7" stroke-miterlimit="1" stroke-linejoin="round"/>
<path d="M717.706 1691.19L360.855 1483.39L4.00391 1691.19L360.855 1898.98L717.706 1691.19Z" fill="white" fill-opacity="0.5" stroke="#FFEF01" stroke-width="7" stroke-miterlimit="1" stroke-linejoin="round"/>
</g>
<g id="g8">
<path d="M717.706 1603.93L360.855 1396.14L4.00391 1603.93L360.855 1811.73L717.706 1603.93Z" fill="white" fill-opacity="0.5" stroke="#FFEF01" stroke-width="7" stroke-miterlimit="1" stroke-linejoin="round"/>
<path d="M717.704 1603.93L360.854 1396.14L360.854 980.546L717.704 1188.34L717.704 1603.93Z" fill="white" fill-opacity="0.5" stroke="#FFEF01" stroke-width="7" stroke-miterlimit="1" stroke-linejoin="round"/>
<path d="M360.855 1396.14L4.00391 1603.93L4.00391 1188.34L360.855 980.546L360.855 1396.14Z" fill="white" fill-opacity="0.5" stroke="#FFEF01" stroke-width="7" stroke-miterlimit="1" stroke-linejoin="round"/>
<path d="M360.855 1811.73L4.00391 1603.93V1188.34L360.855 1396.14V1811.73Z" fill="white" fill-opacity="0.5" stroke="#FFEF01" stroke-width="7" stroke-miterlimit="1" stroke-linejoin="round"/>
<path d="M360.854 1811.73L717.704 1603.93V1188.34L360.854 1396.14L360.854 1811.73Z" fill="white" fill-opacity="0.5" stroke="#FFEF01" stroke-width="7" stroke-miterlimit="1" stroke-linejoin="round"/>
<path d="M717.706 1188.34L360.855 980.546L4.00391 1188.34L360.855 1396.14L717.706 1188.34Z" fill="white" fill-opacity="0.5" stroke="#FFEF01" stroke-width="7" stroke-miterlimit="1" stroke-linejoin="round"/>
</g>
<g id="g9">
<path d="M717.706 1097.88L360.855 890.089L4.00391 1097.88L360.855 1305.68L717.706 1097.88Z" fill="#FFEF01" fill-opacity="0.5" stroke="white" stroke-width="7" stroke-miterlimit="1" stroke-linejoin="round"/>
<path d="M717.704 1097.89L360.854 890.089L360.854 474.497L717.704 682.293L717.704 1097.89Z" fill="#FFEF01" fill-opacity="0.5" stroke="white" stroke-width="7" stroke-miterlimit="1" stroke-linejoin="round"/>
<path d="M360.855 890.089L4.00391 1097.89L4.00391 682.293L360.855 474.497L360.855 890.089Z" fill="#FFEF01" fill-opacity="0.5" stroke="white" stroke-width="7" stroke-miterlimit="1" stroke-linejoin="round"/>
<path d="M360.855 1305.68L4.00391 1097.88V682.293L360.855 890.089V1305.68Z" fill="#FFEF01" fill-opacity="0.5" stroke="white" stroke-width="7" stroke-miterlimit="1" stroke-linejoin="round"/>
<path d="M360.854 1305.68L717.704 1097.88V682.293L360.854 890.089L360.854 1305.68Z" fill="#FFEF01" fill-opacity="0.5" stroke="white" stroke-width="7" stroke-miterlimit="1" stroke-linejoin="round"/>
<path d="M717.706 682.293L360.855 474.497L4.00391 682.293L360.855 890.089L717.706 682.293Z" fill="#FFEF01" fill-opacity="0.5" stroke="white" stroke-width="7" stroke-miterlimit="1" stroke-linejoin="round"/>
</g>
<g id="g10">
<path d="M1929.81 1876.06L1572.96 1668.26L1216.11 1876.06L1572.96 2083.85L1929.81 1876.06Z" fill="#FFEF01" fill-opacity="0.5" stroke="white" stroke-width="7" stroke-miterlimit="1" stroke-linejoin="round"/>
<path d="M1929.81 1876.06L1572.96 1668.26V1252.67L1929.81 1460.47V1876.06Z" fill="#FFEF01" fill-opacity="0.5" stroke="white" stroke-width="7" stroke-miterlimit="1" stroke-linejoin="round"/>
<path d="M1572.96 1668.26L1216.11 1876.06L1216.11 1460.47L1572.96 1252.67V1668.26Z" fill="#FFEF01" fill-opacity="0.5" stroke="white" stroke-width="7" stroke-miterlimit="1" stroke-linejoin="round"/>
<path d="M1572.96 2083.85L1216.11 1876.06V1460.47L1572.96 1668.26V2083.85Z" fill="#FFEF01" fill-opacity="0.5" stroke="white" stroke-width="7" stroke-miterlimit="1" stroke-linejoin="round"/>
<path d="M1572.96 2083.85L1929.81 1876.06V1460.47L1572.96 1668.26L1572.96 2083.85Z" fill="#FFEF01" fill-opacity="0.5" stroke="white" stroke-width="7" stroke-miterlimit="1" stroke-linejoin="round"/>
<path d="M1929.81 1460.47L1572.96 1252.67L1216.11 1460.47L1572.96 1668.26L1929.81 1460.47Z" fill="#FFEF01" fill-opacity="0.5" stroke="white" stroke-width="7" stroke-miterlimit="1" stroke-linejoin="round"/>
</g>
<g id="g11">
<path d="M1929.81 1373.21L1572.96 1165.42L1216.11 1373.21L1572.96 1581.01L1929.81 1373.21Z" fill="white" fill-opacity="0.5" stroke="#FFEF01" stroke-width="7" stroke-miterlimit="1" stroke-linejoin="round"/>
<path d="M1929.81 1373.22L1572.96 1165.42V749.827L1929.81 957.623V1373.22Z" fill="white" fill-opacity="0.5" stroke="#FFEF01" stroke-width="7" stroke-miterlimit="1" stroke-linejoin="round"/>
<path d="M1572.96 1165.42L1216.11 1373.22L1216.11 957.623L1572.96 749.827V1165.42Z" fill="white" fill-opacity="0.5" stroke="#FFEF01" stroke-width="7" stroke-miterlimit="1" stroke-linejoin="round"/>
<path d="M1572.96 1581.01L1216.11 1373.21V957.623L1572.96 1165.42V1581.01Z" fill="white" fill-opacity="0.5" stroke="#FFEF01" stroke-width="7" stroke-miterlimit="1" stroke-linejoin="round"/>
<path d="M1572.96 1581.01L1929.81 1373.21V957.623L1572.96 1165.42L1572.96 1581.01Z" fill="white" fill-opacity="0.5" stroke="#FFEF01" stroke-width="7" stroke-miterlimit="1" stroke-linejoin="round"/>
<path d="M1929.81 957.623L1572.96 749.827L1216.11 957.623L1572.96 1165.42L1929.81 957.623Z" fill="white" fill-opacity="0.5" stroke="#FFEF01" stroke-width="7" stroke-miterlimit="1" stroke-linejoin="round"/>
</g>
<g id="g12">
<path d="M1929.81 867.169L1572.96 659.373L1216.11 867.169L1572.96 1074.97L1929.81 867.169Z" fill="white" fill-opacity="0.5" stroke="#FFEF01" stroke-width="7" stroke-miterlimit="1" stroke-linejoin="round"/>
<path d="M1929.81 867.17L1572.96 659.374V243.782L1929.81 451.578V867.17Z" fill="white" fill-opacity="0.5" stroke="#FFEF01" stroke-width="7" stroke-miterlimit="1" stroke-linejoin="round"/>
<path d="M1572.96 659.374L1216.11 867.17L1216.11 451.578L1572.96 243.782V659.374Z" fill="white" fill-opacity="0.5" stroke="#FFEF01" stroke-width="7" stroke-miterlimit="1" stroke-linejoin="round"/>
<path d="M1572.96 1074.97L1216.11 867.169V451.578L1572.96 659.374V1074.97Z" fill="white" fill-opacity="0.5" stroke="#FFEF01" stroke-width="7" stroke-miterlimit="1" stroke-linejoin="round"/>
<path d="M1572.96 1074.97L1929.81 867.169V451.578L1572.96 659.374L1572.96 1074.97Z" fill="white" fill-opacity="0.5" stroke="#FFEF01" stroke-width="7" stroke-miterlimit="1" stroke-linejoin="round"/>
<path d="M1929.81 451.578L1572.96 243.782L1216.11 451.578L1572.96 659.374L1929.81 451.578Z" fill="white" fill-opacity="0.5" stroke="#FFEF01" stroke-width="7" stroke-miterlimit="1" stroke-linejoin="round"/>
</g>
<g id="g13">
<path d="M1532.66 2109.87L1175.81 1902.07L818.963 2109.87L1175.81 2317.66L1532.66 2109.87Z" fill="white" fill-opacity="0.5" stroke="#FFEF01" stroke-width="7" stroke-miterlimit="1" stroke-linejoin="round"/>
<path d="M1532.66 2109.87L1175.81 1902.07V1486.48L1532.66 1694.28V2109.87Z" fill="white" fill-opacity="0.5" stroke="#FFEF01" stroke-width="7" stroke-miterlimit="1" stroke-linejoin="round"/>
<path d="M1175.81 1902.07L818.963 2109.87L818.963 1694.28L1175.81 1486.48V1902.07Z" fill="white" fill-opacity="0.5" stroke="#FFEF01" stroke-width="7" stroke-miterlimit="1" stroke-linejoin="round"/>
<path d="M1175.81 2317.66L818.963 2109.87V1694.28L1175.81 1902.07V2317.66Z" fill="white" fill-opacity="0.5" stroke="#FFEF01" stroke-width="7" stroke-miterlimit="1" stroke-linejoin="round"/>
<path d="M1175.81 2317.66L1532.66 2109.87V1694.28L1175.81 1902.07L1175.81 2317.66Z" fill="white" fill-opacity="0.5" stroke="#FFEF01" stroke-width="7" stroke-miterlimit="1" stroke-linejoin="round"/>
<path d="M1532.66 1694.28L1175.81 1486.48L818.963 1694.28L1175.81 1902.07L1532.66 1694.28Z" fill="white" fill-opacity="0.5" stroke="#FFEF01" stroke-width="7" stroke-miterlimit="1" stroke-linejoin="round"/>
</g>
<g id="g14">
<path d="M1532.66 1607.02L1175.81 1399.23L818.963 1607.02L1175.81 1814.82L1532.66 1607.02Z" fill="#FFEF01" fill-opacity="0.5" stroke="white" stroke-width="7" stroke-miterlimit="1" stroke-linejoin="round"/>
<path d="M1532.66 1607.02L1175.81 1399.23V983.636L1532.66 1191.43V1607.02Z" fill="#FFEF01" fill-opacity="0.5" stroke="white" stroke-width="7" stroke-miterlimit="1" stroke-linejoin="round"/>
<path d="M1175.81 1399.23L818.963 1607.02L818.963 1191.43L1175.81 983.636V1399.23Z" fill="#FFEF01" fill-opacity="0.5" stroke="white" stroke-width="7" stroke-miterlimit="1" stroke-linejoin="round"/>
<path d="M1175.81 1814.82L818.963 1607.02V1191.43L1175.81 1399.23V1814.82Z" fill="#FFEF01" fill-opacity="0.5" stroke="white" stroke-width="7" stroke-miterlimit="1" stroke-linejoin="round"/>
<path d="M1175.81 1814.82L1532.66 1607.02V1191.43L1175.81 1399.23L1175.81 1814.82Z" fill="#FFEF01" fill-opacity="0.5" stroke="white" stroke-width="7" stroke-miterlimit="1" stroke-linejoin="round"/>
<path d="M1532.66 1191.43L1175.81 983.636L818.963 1191.43L1175.81 1399.23L1532.66 1191.43Z" fill="#FFEF01" fill-opacity="0.5" stroke="white" stroke-width="7" stroke-miterlimit="1" stroke-linejoin="round"/>
</g>
<g id="g15">
<path d="M1532.66 1100.97L1175.81 893.179L818.963 1100.97L1175.81 1308.77L1532.66 1100.97Z" fill="white" fill-opacity="0.5" stroke="#FFEF01" stroke-width="7" stroke-miterlimit="1" stroke-linejoin="round"/>
<path d="M1532.66 1100.98L1175.81 893.179V477.587L1532.66 685.383V1100.98Z" fill="white" fill-opacity="0.5" stroke="#FFEF01" stroke-width="7" stroke-miterlimit="1" stroke-linejoin="round"/>
<path d="M1175.81 893.179L818.963 1100.98L818.963 685.383L1175.81 477.587V893.179Z" fill="white" fill-opacity="0.5" stroke="#FFEF01" stroke-width="7" stroke-miterlimit="1" stroke-linejoin="round"/>
<path d="M1175.81 1308.77L818.963 1100.97V685.383L1175.81 893.179V1308.77Z" fill="white" fill-opacity="0.5" stroke="#FFEF01" stroke-width="7" stroke-miterlimit="1" stroke-linejoin="round"/>
<path d="M1175.81 1308.77L1532.66 1100.97V685.383L1175.81 893.179L1175.81 1308.77Z" fill="white" fill-opacity="0.5" stroke="#FFEF01" stroke-width="7" stroke-miterlimit="1" stroke-linejoin="round"/>
<path d="M1532.66 685.383L1175.81 477.587L818.963 685.383L1175.81 893.179L1532.66 685.383Z" fill="white" fill-opacity="0.5" stroke="#FFEF01" stroke-width="7" stroke-miterlimit="1" stroke-linejoin="round"/>
</g>
<g id="g16">
<path d="M1127.67 2346.99L770.818 2139.2L413.967 2346.99L770.818 2554.79L1127.67 2346.99Z" fill="white" fill-opacity="0.5" stroke="#FFEF01" stroke-width="7" stroke-miterlimit="1" stroke-linejoin="round"/>
<path d="M1127.67 2346.99L770.816 2139.2L770.816 1723.6L1127.67 1931.4V2346.99Z" fill="white" fill-opacity="0.5" stroke="#FFEF01" stroke-width="7" stroke-miterlimit="1" stroke-linejoin="round"/>
<path d="M770.818 2139.2L413.967 2346.99L413.967 1931.4L770.818 1723.6V2139.2Z" fill="white" fill-opacity="0.5" stroke="#FFEF01" stroke-width="7" stroke-miterlimit="1" stroke-linejoin="round"/>
<path d="M770.818 2554.79L413.967 2346.99V1931.4L770.818 2139.2V2554.79Z" fill="white" fill-opacity="0.5" stroke="#FFEF01" stroke-width="7" stroke-miterlimit="1" stroke-linejoin="round"/>
<path d="M770.816 2554.79L1127.67 2346.99V1931.4L770.816 2139.2L770.816 2554.79Z" fill="white" fill-opacity="0.5" stroke="#FFEF01" stroke-width="7" stroke-miterlimit="1" stroke-linejoin="round"/>
<path d="M1127.67 1931.4L770.818 1723.6L413.967 1931.4L770.818 2139.2L1127.67 1931.4Z" fill="white" fill-opacity="0.5" stroke="#FFEF01" stroke-width="7" stroke-miterlimit="1" stroke-linejoin="round"/>
</g>
<g id="g17">
<path d="M1127.67 1844.14L770.818 1636.35L413.967 1844.14L770.818 2051.94L1127.67 1844.14Z" fill="#FFEF01" fill-opacity="0.5" stroke="white" stroke-width="7" stroke-miterlimit="1" stroke-linejoin="round"/>
<path d="M1127.67 1844.15L770.816 1636.35L770.816 1220.76L1127.67 1428.55V1844.15Z" fill="#FFEF01" fill-opacity="0.5" stroke="white" stroke-width="7" stroke-miterlimit="1" stroke-linejoin="round"/>
<path d="M770.818 1636.35L413.967 1844.15L413.967 1428.55L770.818 1220.76V1636.35Z" fill="#FFEF01" fill-opacity="0.5" stroke="white" stroke-width="7" stroke-miterlimit="1" stroke-linejoin="round"/>
<path d="M770.818 2051.94L413.967 1844.14V1428.55L770.818 1636.35V2051.94Z" fill="#FFEF01" fill-opacity="0.5" stroke="white" stroke-width="7" stroke-miterlimit="1" stroke-linejoin="round"/>
<path d="M770.816 2051.94L1127.67 1844.14V1428.55L770.816 1636.35L770.816 2051.94Z" fill="#FFEF01" fill-opacity="0.5" stroke="white" stroke-width="7" stroke-miterlimit="1" stroke-linejoin="round"/>
<path d="M1127.67 1428.55L770.818 1220.76L413.967 1428.55L770.818 1636.35L1127.67 1428.55Z" fill="#FFEF01" fill-opacity="0.5" stroke="white" stroke-width="7" stroke-miterlimit="1" stroke-linejoin="round"/>
</g>
<g id="g18">
<path d="M1127.67 1338.1L770.818 1130.3L413.967 1338.1L770.818 1545.89L1127.67 1338.1Z" fill="white" fill-opacity="0.5" stroke="#FFEF01" stroke-width="7" stroke-miterlimit="1" stroke-linejoin="round"/>
<path d="M1127.67 1338.1L770.816 1130.3L770.816 714.71L1127.67 922.506V1338.1Z" fill="white" fill-opacity="0.5" stroke="#FFEF01" stroke-width="7" stroke-miterlimit="1" stroke-linejoin="round"/>
<path d="M770.818 1130.3L413.967 1338.1L413.967 922.506L770.818 714.71V1130.3Z" fill="white" fill-opacity="0.5" stroke="#FFEF01" stroke-width="7" stroke-miterlimit="1" stroke-linejoin="round"/>
<path d="M770.818 1545.89L413.967 1338.1V922.506L770.818 1130.3V1545.89Z" fill="white" fill-opacity="0.5" stroke="#FFEF01" stroke-width="7" stroke-miterlimit="1" stroke-linejoin="round"/>
<path d="M770.816 1545.89L1127.67 1338.1V922.506L770.816 1130.3L770.816 1545.89Z" fill="white" fill-opacity="0.5" stroke="#FFEF01" stroke-width="7" stroke-miterlimit="1" stroke-linejoin="round"/>
<path d="M1127.67 922.506L770.818 714.71L413.967 922.506L770.818 1130.3L1127.67 922.506Z" fill="white" fill-opacity="0.5" stroke="#FFEF01" stroke-width="7" stroke-miterlimit="1" stroke-linejoin="round"/>
</g>
<g id="g19">
<path d="M2342.98 2116.27L1986.13 1908.48L1629.28 2116.27L1986.13 2324.07L2342.98 2116.27Z" fill="white" fill-opacity="0.5" stroke="#FFEF01" stroke-width="7" stroke-miterlimit="1" stroke-linejoin="round"/>
<path d="M2342.98 2116.27L1986.13 1908.48V1492.89L2342.98 1700.68V2116.27Z" fill="white" fill-opacity="0.5" stroke="#FFEF01" stroke-width="7" stroke-miterlimit="1" stroke-linejoin="round"/>
<path d="M1986.13 1908.48L1629.28 2116.27L1629.28 1700.68L1986.13 1492.89V1908.48Z" fill="white" fill-opacity="0.5" stroke="#FFEF01" stroke-width="7" stroke-miterlimit="1" stroke-linejoin="round"/>
<path d="M1986.13 2324.07L1629.28 2116.27V1700.68L1986.13 1908.48V2324.07Z" fill="white" fill-opacity="0.5" stroke="#FFEF01" stroke-width="7" stroke-miterlimit="1" stroke-linejoin="round"/>
<path d="M1986.13 2324.07L2342.98 2116.27V1700.68L1986.13 1908.48L1986.13 2324.07Z" fill="white" fill-opacity="0.5" stroke="#FFEF01" stroke-width="7" stroke-miterlimit="1" stroke-linejoin="round"/>
<path d="M2342.98 1700.68L1986.13 1492.89L1629.28 1700.68L1986.13 1908.48L2342.98 1700.68Z" fill="white" fill-opacity="0.5" stroke="#FFEF01" stroke-width="7" stroke-miterlimit="1" stroke-linejoin="round"/>
</g>
<g id="g20">
<path d="M2342.98 1613.43L1986.13 1405.63L1629.28 1613.43L1986.13 1821.23L2342.98 1613.43Z" fill="white" fill-opacity="0.5" stroke="#FFEF01" stroke-width="7" stroke-miterlimit="1" stroke-linejoin="round"/>
<path d="M2342.98 1613.43L1986.13 1405.63V990.042L2342.98 1197.84V1613.43Z" fill="white" fill-opacity="0.5" stroke="#FFEF01" stroke-width="7" stroke-miterlimit="1" stroke-linejoin="round"/>
<path d="M1986.13 1405.63L1629.28 1613.43L1629.28 1197.84L1986.13 990.042V1405.63Z" fill="white" fill-opacity="0.5" stroke="#FFEF01" stroke-width="7" stroke-miterlimit="1" stroke-linejoin="round"/>
<path d="M1986.13 1821.23L1629.28 1613.43V1197.84L1986.13 1405.63V1821.23Z" fill="white" fill-opacity="0.5" stroke="#FFEF01" stroke-width="7" stroke-miterlimit="1" stroke-linejoin="round"/>
<path d="M1986.13 1821.23L2342.98 1613.43V1197.84L1986.13 1405.63L1986.13 1821.23Z" fill="white" fill-opacity="0.5" stroke="#FFEF01" stroke-width="7" stroke-miterlimit="1" stroke-linejoin="round"/>
<path d="M2342.98 1197.84L1986.13 990.042L1629.28 1197.84L1986.13 1405.63L2342.98 1197.84Z" fill="white" fill-opacity="0.5" stroke="#FFEF01" stroke-width="7" stroke-miterlimit="1" stroke-linejoin="round"/>
</g>
<g id="g21">
<path d="M2342.98 1107.38L1986.13 899.584L1629.28 1107.38L1986.13 1315.18L2342.98 1107.38Z" fill="#FFEF01" fill-opacity="0.5" stroke="white" stroke-width="7" stroke-miterlimit="1" stroke-linejoin="round"/>
<path d="M2342.98 1107.38L1986.13 899.585V483.993L2342.98 691.789V1107.38Z" fill="#FFEF01" fill-opacity="0.5" stroke="white" stroke-width="7" stroke-miterlimit="1" stroke-linejoin="round"/>
<path d="M1986.13 899.585L1629.28 1107.38L1629.28 691.789L1986.13 483.993V899.585Z" fill="#FFEF01" fill-opacity="0.5" stroke="white" stroke-width="7" stroke-miterlimit="1" stroke-linejoin="round"/>
<path d="M1986.13 1315.18L1629.28 1107.38V691.789L1986.13 899.585V1315.18Z" fill="#FFEF01" fill-opacity="0.5" stroke="white" stroke-width="7" stroke-miterlimit="1" stroke-linejoin="round"/>
<path d="M1986.13 1315.18L2342.98 1107.38V691.789L1986.13 899.585L1986.13 1315.18Z" fill="#FFEF01" fill-opacity="0.5" stroke="white" stroke-width="7" stroke-miterlimit="1" stroke-linejoin="round"/>
<path d="M2342.98 691.789L1986.13 483.993L1629.28 691.789L1986.13 899.585L2342.98 691.789Z" fill="#FFEF01" fill-opacity="0.5" stroke="white" stroke-width="7" stroke-miterlimit="1" stroke-linejoin="round"/>
</g>
<g id="g22">
<path d="M1945.82 2350.08L1588.97 2142.28L1232.12 2350.08L1588.97 2557.88L1945.82 2350.08Z" fill="#FFEF01" fill-opacity="0.5" stroke="white" stroke-width="7" stroke-miterlimit="1" stroke-linejoin="round"/>
<path d="M1945.82 2350.08L1588.97 2142.29V1726.69L1945.82 1934.49V2350.08Z" fill="#FFEF01" fill-opacity="0.5" stroke="white" stroke-width="7" stroke-miterlimit="1" stroke-linejoin="round"/>
<path d="M1588.97 2142.29L1232.12 2350.08L1232.12 1934.49L1588.97 1726.69V2142.29Z" fill="#FFEF01" fill-opacity="0.5" stroke="white" stroke-width="7" stroke-miterlimit="1" stroke-linejoin="round"/>
<path d="M1588.97 2557.88L1232.12 2350.08V1934.49L1588.97 2142.28V2557.88Z" fill="#FFEF01" fill-opacity="0.5" stroke="white" stroke-width="7" stroke-miterlimit="1" stroke-linejoin="round"/>
<path d="M1588.97 2557.88L1945.82 2350.08V1934.49L1588.97 2142.28L1588.97 2557.88Z" fill="#FFEF01" fill-opacity="0.5" stroke="white" stroke-width="7" stroke-miterlimit="1" stroke-linejoin="round"/>
<path d="M1945.82 1934.49L1588.97 1726.69L1232.12 1934.49L1588.97 2142.29L1945.82 1934.49Z" fill="#FFEF01" fill-opacity="0.5" stroke="white" stroke-width="7" stroke-miterlimit="1" stroke-linejoin="round"/>
</g>
<g id="g23">
<path d="M1945.82 1847.23L1588.97 1639.44L1232.12 1847.23L1588.97 2055.03L1945.82 1847.23Z" fill="white" fill-opacity="0.5" stroke="#FFEF01" stroke-width="7" stroke-miterlimit="1" stroke-linejoin="round"/>
<path d="M1945.82 1847.24L1588.97 1639.44V1223.85L1945.82 1431.64V1847.24Z" fill="white" fill-opacity="0.5" stroke="#FFEF01" stroke-width="7" stroke-miterlimit="1" stroke-linejoin="round"/>
<path d="M1588.97 1639.44L1232.12 1847.24L1232.12 1431.64L1588.97 1223.85V1639.44Z" fill="white" fill-opacity="0.5" stroke="#FFEF01" stroke-width="7" stroke-miterlimit="1" stroke-linejoin="round"/>
<path d="M1588.97 2055.03L1232.12 1847.23V1431.64L1588.97 1639.44V2055.03Z" fill="white" fill-opacity="0.5" stroke="#FFEF01" stroke-width="7" stroke-miterlimit="1" stroke-linejoin="round"/>
<path d="M1588.97 2055.03L1945.82 1847.23V1431.64L1588.97 1639.44L1588.97 2055.03Z" fill="white" fill-opacity="0.5" stroke="#FFEF01" stroke-width="7" stroke-miterlimit="1" stroke-linejoin="round"/>
<path d="M1945.82 1431.64L1588.97 1223.85L1232.12 1431.64L1588.97 1639.44L1945.82 1431.64Z" fill="white" fill-opacity="0.5" stroke="#FFEF01" stroke-width="7" stroke-miterlimit="1" stroke-linejoin="round"/>
</g>
<g id="g24">
<path d="M1945.82 1341.19L1588.97 1133.39L1232.12 1341.19L1588.97 1548.98L1945.82 1341.19Z" fill="#FFEF01" fill-opacity="0.5" stroke="white" stroke-width="7" stroke-miterlimit="1" stroke-linejoin="round"/>
<path d="M1945.82 1341.19L1588.97 1133.39V717.799L1945.82 925.594V1341.19Z" fill="#FFEF01" fill-opacity="0.5" stroke="white" stroke-width="7" stroke-miterlimit="1" stroke-linejoin="round"/>
<path d="M1588.97 1133.39L1232.12 1341.19L1232.12 925.594L1588.97 717.799V1133.39Z" fill="#FFEF01" fill-opacity="0.5" stroke="white" stroke-width="7" stroke-miterlimit="1" stroke-linejoin="round"/>
<path d="M1588.97 1548.98L1232.12 1341.19V925.594L1588.97 1133.39V1548.98Z" fill="#FFEF01" fill-opacity="0.5" stroke="white" stroke-width="7" stroke-miterlimit="1" stroke-linejoin="round"/>
<path d="M1588.97 1548.98L1945.82 1341.19V925.594L1588.97 1133.39L1588.97 1548.98Z" fill="#FFEF01" fill-opacity="0.5" stroke="white" stroke-width="7" stroke-miterlimit="1" stroke-linejoin="round"/>
<path d="M1945.82 925.594L1588.97 717.799L1232.12 925.594L1588.97 1133.39L1945.82 925.594Z" fill="#FFEF01" fill-opacity="0.5" stroke="white" stroke-width="7" stroke-miterlimit="1" stroke-linejoin="round"/>
</g>
<g id="g25">
<path d="M1540.83 2587.2L1183.98 2379.41L827.133 2587.2L1183.98 2795L1540.83 2587.2Z" fill="#FFEF01" fill-opacity="0.5" stroke="white" stroke-width="7" stroke-miterlimit="1" stroke-linejoin="round"/>
<path d="M1540.83 2587.2L1183.98 2379.41V1963.82L1540.83 2171.61V2587.2Z" fill="#FFEF01" fill-opacity="0.5" stroke="white" stroke-width="7" stroke-miterlimit="1" stroke-linejoin="round"/>
<path d="M1183.98 2379.41L827.133 2587.2L827.133 2171.61L1183.98 1963.82V2379.41Z" fill="#FFEF01" fill-opacity="0.5" stroke="white" stroke-width="7" stroke-miterlimit="1" stroke-linejoin="round"/>
<path d="M1183.98 2795L827.133 2587.2V2171.61L1183.98 2379.41V2795Z" fill="#FFEF01" fill-opacity="0.5" stroke="white" stroke-width="7" stroke-miterlimit="1" stroke-linejoin="round"/>
<path d="M1183.98 2795L1540.83 2587.2V2171.61L1183.98 2379.41L1183.98 2795Z" fill="#FFEF01" fill-opacity="0.5" stroke="white" stroke-width="7" stroke-miterlimit="1" stroke-linejoin="round"/>
<path d="M1540.83 2171.61L1183.98 1963.82L827.133 2171.61L1183.98 2379.41L1540.83 2171.61Z" fill="#FFEF01" fill-opacity="0.5" stroke="white" stroke-width="7" stroke-miterlimit="1" stroke-linejoin="round"/>
</g>
<g id="g26">
<path d="M1540.83 2084.36L1183.98 1876.56L827.133 2084.36L1183.98 2292.15L1540.83 2084.36Z" fill="#FFEF01" fill-opacity="0.5" stroke="white" stroke-width="7" stroke-miterlimit="1" stroke-linejoin="round"/>
<path d="M1540.83 2084.36L1183.98 1876.56V1460.97L1540.83 1668.77V2084.36Z" fill="#FFEF01" fill-opacity="0.5" stroke="white" stroke-width="7" stroke-miterlimit="1" stroke-linejoin="round"/>
<path d="M1183.98 1876.56L827.133 2084.36L827.133 1668.77L1183.98 1460.97V1876.56Z" fill="#FFEF01" fill-opacity="0.5" stroke="white" stroke-width="7" stroke-miterlimit="1" stroke-linejoin="round"/>
<path d="M1183.98 2292.15L827.133 2084.36V1668.77L1183.98 1876.56V2292.15Z" fill="#FFEF01" fill-opacity="0.5" stroke="white" stroke-width="7" stroke-miterlimit="1" stroke-linejoin="round"/>
<path d="M1183.98 2292.15L1540.83 2084.36V1668.77L1183.98 1876.56L1183.98 2292.15Z" fill="#FFEF01" fill-opacity="0.5" stroke="white" stroke-width="7" stroke-miterlimit="1" stroke-linejoin="round"/>
<path d="M1540.83 1668.77L1183.98 1460.97L827.133 1668.77L1183.98 1876.56L1540.83 1668.77Z" fill="#FFEF01" fill-opacity="0.5" stroke="white" stroke-width="7" stroke-miterlimit="1" stroke-linejoin="round"/>
</g>
<g id="g27">
<path d="M1540.83 1578.31L1183.98 1370.51L827.133 1578.31L1183.98 1786.11L1540.83 1578.31Z" fill="white" fill-opacity="0.5" stroke="#FFEF01" stroke-width="7" stroke-miterlimit="1" stroke-linejoin="round"/>
<path d="M1540.83 1578.31L1183.98 1370.51V954.923L1540.83 1162.72V1578.31Z" fill="white" fill-opacity="0.5" stroke="#FFEF01" stroke-width="7" stroke-miterlimit="1" stroke-linejoin="round"/>
<path d="M1183.98 1370.51L827.133 1578.31L827.133 1162.72L1183.98 954.923V1370.51Z" fill="white" fill-opacity="0.5" stroke="#FFEF01" stroke-width="7" stroke-miterlimit="1" stroke-linejoin="round"/>
<path d="M1183.98 1786.11L827.133 1578.31V1162.72L1183.98 1370.51V1786.11Z" fill="white" fill-opacity="0.5" stroke="#FFEF01" stroke-width="7" stroke-miterlimit="1" stroke-linejoin="round"/>
<path d="M1183.98 1786.11L1540.83 1578.31V1162.72L1183.98 1370.51L1183.98 1786.11Z" fill="white" fill-opacity="0.5" stroke="#FFEF01" stroke-width="7" stroke-miterlimit="1" stroke-linejoin="round"/>
<path d="M1540.83 1162.72L1183.98 954.923L827.133 1162.72L1183.98 1370.51L1540.83 1162.72Z" fill="white" fill-opacity="0.5" stroke="#FFEF01" stroke-width="7" stroke-miterlimit="1" stroke-linejoin="round"/>
</g>
</svg>
