<svg id="cube" width="2347" height="2799" viewBox="0 0 2347 2799" fill="none" xmlns="http://www.w3.org/2000/svg">

<path d="M1519.85 1636.28L1163 1428.48L806.146 1636.28L1163 1844.08L1519.85 1636.28Z" fill="white" fill-opacity="0.5" stroke="#FFEF01" stroke-width="7" stroke-miterlimit="1" stroke-linejoin="round"/>
<path d="M1519.85 1636.28L1163 1428.49V1012.89L1519.85 1220.69V1636.28Z" fill="white" fill-opacity="0.5" stroke="#FFEF01" stroke-width="7" stroke-miterlimit="1" stroke-linejoin="round"/>
<path d="M1163 1428.49L806.146 1636.28L806.146 1220.69L1163 1012.89V1428.49Z" fill="white" fill-opacity="0.5" stroke="#FFEF01" stroke-width="7" stroke-miterlimit="1" stroke-linejoin="round"/>
<path d="M1163 1844.08L806.146 1636.28V1220.69L1163 1428.48V1844.08Z" fill="white" fill-opacity="0.5" stroke="#FFEF01" stroke-width="7" stroke-miterlimit="1" stroke-linejoin="round"/>
<path d="M1163 1844.08L1519.85 1636.28V1220.69L1163 1428.48L1163 1844.08Z" fill="white" fill-opacity="0.5" stroke="#FFEF01" stroke-width="7" stroke-miterlimit="1" stroke-linejoin="round"/>
<path d="M1519.85 1220.69L1163 1012.89L806.146 1220.69L1163 1428.49L1519.85 1220.69Z" fill="white" fill-opacity="0.5" stroke="#FFEF01" stroke-width="7" stroke-miterlimit="1" stroke-linejoin="round"/>


<path d="M1519.85 1133.44L1163 925.64L806.146 1133.44L1163 1341.23L1519.85 1133.44Z" fill="#FFEF01" fill-opacity="0.5" stroke="white" stroke-width="7" stroke-miterlimit="1" stroke-linejoin="round"/>
<path d="M1519.85 1133.44L1163 925.641V510.049L1519.85 717.845V1133.44Z" fill="#FFEF01" fill-opacity="0.5" stroke="white" stroke-width="7" stroke-miterlimit="1" stroke-linejoin="round"/>
<path d="M1163 925.641L806.146 1133.44L806.146 717.845L1163 510.049V925.641Z" fill="#FFEF01" fill-opacity="0.5" stroke="white" stroke-width="7" stroke-miterlimit="1" stroke-linejoin="round"/>
<path d="M1163 1341.23L806.146 1133.44V717.844L1163 925.64V1341.23Z" fill="#FFEF01" fill-opacity="0.5" stroke="white" stroke-width="7" stroke-miterlimit="1" stroke-linejoin="round"/>
<path d="M1163 1341.23L1519.85 1133.44V717.844L1163 925.64L1163 1341.23Z" fill="#FFEF01" fill-opacity="0.5" stroke="white" stroke-width="7" stroke-miterlimit="1" stroke-linejoin="round"/>
<path d="M1519.85 717.845L1163 510.049L806.146 717.845L1163 925.641L1519.85 717.845Z" fill="#FFEF01" fill-opacity="0.5" stroke="white" stroke-width="7" stroke-miterlimit="1" stroke-linejoin="round"/>

<path d="M1519.85 627.387L1163 419.591L806.146 627.387L1163 835.183L1519.85 627.387Z" fill="#FFEF01" fill-opacity="0.5" stroke="white" stroke-width="7" stroke-miterlimit="1" stroke-linejoin="round"/>
<path d="M1519.85 627.388L1163 419.592V4L1519.85 211.796V627.388Z" fill="#FFEF01" fill-opacity="0.5" stroke="white" stroke-width="7" stroke-miterlimit="1" stroke-linejoin="round"/>
<path d="M1163 419.592L806.146 627.388L806.146 211.796L1163 4V419.592Z" fill="#FFEF01" fill-opacity="0.5" stroke="white" stroke-width="7" stroke-miterlimit="1" stroke-linejoin="round"/>
<path d="M1163 835.183L806.146 627.387V211.796L1163 419.592V835.183Z" fill="#FFEF01" fill-opacity="0.5" stroke="white" stroke-width="7" stroke-miterlimit="1" stroke-linejoin="round"/>
<path d="M1163 835.183L1519.85 627.387V211.796L1163 419.592L1163 835.183Z" fill="#FFEF01" fill-opacity="0.5" stroke="white" stroke-width="7" stroke-miterlimit="1" stroke-linejoin="round"/>
<path d="M1519.85 211.796L1163 4L806.146 211.796L1163 419.592L1519.85 211.796Z" fill="#FFEF01" fill-opacity="0.5" stroke="white" stroke-width="7" stroke-miterlimit="1" stroke-linejoin="round"/>
<path d="M1122.7 1870.09L765.853 1662.29L409.002 1870.09L765.853 2077.88L1122.7 1870.09Z" fill="white" fill-opacity="0.5" stroke="#FFEF01" stroke-width="7" stroke-miterlimit="1" stroke-linejoin="round"/>
<path d="M1122.7 1870.09L765.852 1662.29L765.852 1246.7L1122.7 1454.49V1870.09Z" fill="white" fill-opacity="0.5" stroke="#FFEF01" stroke-width="7" stroke-miterlimit="1" stroke-linejoin="round"/>
<path d="M765.853 1662.29L409.002 1870.09L409.002 1454.49L765.853 1246.7V1662.29Z" fill="white" fill-opacity="0.5" stroke="#FFEF01" stroke-width="7" stroke-miterlimit="1" stroke-linejoin="round"/>
<path d="M765.853 2077.88L409.002 1870.09V1454.49L765.853 1662.29V2077.88Z" fill="white" fill-opacity="0.5" stroke="#FFEF01" stroke-width="7" stroke-miterlimit="1" stroke-linejoin="round"/>
<path d="M765.852 2077.88L1122.7 1870.09V1454.49L765.852 1662.29L765.852 2077.88Z" fill="white" fill-opacity="0.5" stroke="#FFEF01" stroke-width="7" stroke-miterlimit="1" stroke-linejoin="round"/>
<path d="M1122.7 1454.49L765.853 1246.7L409.002 1454.49L765.853 1662.29L1122.7 1454.49Z" fill="white" fill-opacity="0.5" stroke="#FFEF01" stroke-width="7" stroke-miterlimit="1" stroke-linejoin="round"/>
<path d="M1122.7 1367.24L765.853 1159.45L409.002 1367.24L765.853 1575.04L1122.7 1367.24Z" fill="#FFEF01" fill-opacity="0.5" stroke="white" stroke-width="7" stroke-miterlimit="1" stroke-linejoin="round"/>
<path d="M1122.7 1367.24L765.852 1159.45L765.852 743.854L1122.7 951.65V1367.24Z" fill="#FFEF01" fill-opacity="0.5" stroke="white" stroke-width="7" stroke-miterlimit="1" stroke-linejoin="round"/>
<path d="M765.853 1159.45L409.002 1367.24L409.002 951.65L765.853 743.854V1159.45Z" fill="#FFEF01" fill-opacity="0.5" stroke="white" stroke-width="7" stroke-miterlimit="1" stroke-linejoin="round"/>
<path d="M765.853 1575.04L409.002 1367.24V951.65L765.853 1159.45V1575.04Z" fill="#FFEF01" fill-opacity="0.5" stroke="white" stroke-width="7" stroke-miterlimit="1" stroke-linejoin="round"/>
<path d="M765.852 1575.04L1122.7 1367.24V951.65L765.852 1159.45L765.852 1575.04Z" fill="#FFEF01" fill-opacity="0.5" stroke="white" stroke-width="7" stroke-miterlimit="1" stroke-linejoin="round"/>
<path d="M1122.7 951.65L765.853 743.854L409.002 951.65L765.853 1159.45L1122.7 951.65Z" fill="#FFEF01" fill-opacity="0.5" stroke="white" stroke-width="7" stroke-miterlimit="1" stroke-linejoin="round"/>
<path d="M1122.7 861.193L765.853 653.397L409.002 861.193L765.853 1068.99L1122.7 861.193Z" fill="white" fill-opacity="0.5" stroke="#FFEF01" stroke-width="7" stroke-miterlimit="1" stroke-linejoin="round"/>
<path d="M1122.7 861.193L765.852 653.397L765.852 237.805L1122.7 445.601V861.193Z" fill="white" fill-opacity="0.5" stroke="#FFEF01" stroke-width="7" stroke-miterlimit="1" stroke-linejoin="round"/>
<path d="M765.853 653.397L409.002 861.193L409.002 445.601L765.853 237.805V653.397Z" fill="white" fill-opacity="0.5" stroke="#FFEF01" stroke-width="7" stroke-miterlimit="1" stroke-linejoin="round"/>
<path d="M765.853 1068.99L409.002 861.193V445.601L765.853 653.397V1068.99Z" fill="white" fill-opacity="0.5" stroke="#FFEF01" stroke-width="7" stroke-miterlimit="1" stroke-linejoin="round"/>
<path d="M765.852 1068.99L1122.7 861.193V445.601L765.852 653.397L765.852 1068.99Z" fill="white" fill-opacity="0.5" stroke="#FFEF01" stroke-width="7" stroke-miterlimit="1" stroke-linejoin="round"/>
<path d="M1122.7 445.601L765.853 237.805L409.002 445.601L765.853 653.397L1122.7 445.601Z" fill="white" fill-opacity="0.5" stroke="#FFEF01" stroke-width="7" stroke-miterlimit="1" stroke-linejoin="round"/>
<path d="M717.702 2107.21L360.851 1899.41L4 2107.21L360.851 2315.01L717.702 2107.21Z" fill="white" fill-opacity="0.5" stroke="#FFEF01" stroke-width="7" stroke-miterlimit="1" stroke-linejoin="round"/>
<path d="M717.7 2107.21L360.85 1899.41L360.85 1483.82L717.7 1691.62L717.7 2107.21Z" fill="white" fill-opacity="0.5" stroke="#FFEF01" stroke-width="7" stroke-miterlimit="1" stroke-linejoin="round"/>
<path d="M360.851 1899.42L4 2107.21L4 1691.62L360.851 1483.82L360.851 1899.42Z" fill="white" fill-opacity="0.5" stroke="#FFEF01" stroke-width="7" stroke-miterlimit="1" stroke-linejoin="round"/>
<path d="M360.851 2315.01L4 2107.21V1691.62L360.851 1899.41V2315.01Z" fill="white" fill-opacity="0.5" stroke="#FFEF01" stroke-width="7" stroke-miterlimit="1" stroke-linejoin="round"/>
<path d="M360.85 2315.01L717.7 2107.21V1691.62L360.85 1899.41L360.85 2315.01Z" fill="white" fill-opacity="0.5" stroke="#FFEF01" stroke-width="7" stroke-miterlimit="1" stroke-linejoin="round"/>
<path d="M717.702 1691.62L360.851 1483.82L4 1691.62L360.851 1899.42L717.702 1691.62Z" fill="white" fill-opacity="0.5" stroke="#FFEF01" stroke-width="7" stroke-miterlimit="1" stroke-linejoin="round"/>
<path d="M717.702 1604.37L360.851 1396.57L4 1604.37L360.851 1812.16L717.702 1604.37Z" fill="white" fill-opacity="0.5" stroke="#FFEF01" stroke-width="7" stroke-miterlimit="1" stroke-linejoin="round"/>
<path d="M717.7 1604.37L360.85 1396.57L360.85 980.979L717.7 1188.77L717.7 1604.37Z" fill="white" fill-opacity="0.5" stroke="#FFEF01" stroke-width="7" stroke-miterlimit="1" stroke-linejoin="round"/>
<path d="M360.851 1396.57L4 1604.37L4 1188.77L360.851 980.979L360.851 1396.57Z" fill="white" fill-opacity="0.5" stroke="#FFEF01" stroke-width="7" stroke-miterlimit="1" stroke-linejoin="round"/>
<path d="M360.851 1812.16L4 1604.37V1188.77L360.851 1396.57V1812.16Z" fill="white" fill-opacity="0.5" stroke="#FFEF01" stroke-width="7" stroke-miterlimit="1" stroke-linejoin="round"/>
<path d="M360.85 1812.16L717.7 1604.37V1188.77L360.85 1396.57L360.85 1812.16Z" fill="white" fill-opacity="0.5" stroke="#FFEF01" stroke-width="7" stroke-miterlimit="1" stroke-linejoin="round"/>
<path d="M717.702 1188.77L360.851 980.979L4 1188.77L360.851 1396.57L717.702 1188.77Z" fill="white" fill-opacity="0.5" stroke="#FFEF01" stroke-width="7" stroke-miterlimit="1" stroke-linejoin="round"/>
<path d="M717.702 1098.32L360.851 890.521L4 1098.32L360.851 1306.11L717.702 1098.32Z" fill="#FFEF01" fill-opacity="0.5" stroke="white" stroke-width="7" stroke-miterlimit="1" stroke-linejoin="round"/>
<path d="M717.7 1098.32L360.85 890.522L360.85 474.93L717.7 682.726L717.7 1098.32Z" fill="#FFEF01" fill-opacity="0.5" stroke="white" stroke-width="7" stroke-miterlimit="1" stroke-linejoin="round"/>
<path d="M360.851 890.522L4 1098.32L4 682.726L360.851 474.93L360.851 890.522Z" fill="#FFEF01" fill-opacity="0.5" stroke="white" stroke-width="7" stroke-miterlimit="1" stroke-linejoin="round"/>
<path d="M360.851 1306.11L4 1098.32V682.726L360.851 890.521V1306.11Z" fill="#FFEF01" fill-opacity="0.5" stroke="white" stroke-width="7" stroke-miterlimit="1" stroke-linejoin="round"/>
<path d="M360.85 1306.11L717.7 1098.32V682.726L360.85 890.521L360.85 1306.11Z" fill="#FFEF01" fill-opacity="0.5" stroke="white" stroke-width="7" stroke-miterlimit="1" stroke-linejoin="round"/>
<path d="M717.702 682.726L360.851 474.93L4 682.726L360.851 890.522L717.702 682.726Z" fill="#FFEF01" fill-opacity="0.5" stroke="white" stroke-width="7" stroke-miterlimit="1" stroke-linejoin="round"/>
<path d="M1929.81 1876.49L1572.96 1668.7L1216.11 1876.49L1572.96 2084.29L1929.81 1876.49Z" fill="#FFEF01" fill-opacity="0.5" stroke="white" stroke-width="7" stroke-miterlimit="1" stroke-linejoin="round"/>
<path d="M1929.81 1876.49L1572.96 1668.7V1253.1L1929.81 1460.9V1876.49Z" fill="#FFEF01" fill-opacity="0.5" stroke="white" stroke-width="7" stroke-miterlimit="1" stroke-linejoin="round"/>
<path d="M1572.96 1668.7L1216.11 1876.49L1216.11 1460.9L1572.96 1253.1V1668.7Z" fill="#FFEF01" fill-opacity="0.5" stroke="white" stroke-width="7" stroke-miterlimit="1" stroke-linejoin="round"/>
<path d="M1572.96 2084.29L1216.11 1876.49V1460.9L1572.96 1668.7V2084.29Z" fill="#FFEF01" fill-opacity="0.5" stroke="white" stroke-width="7" stroke-miterlimit="1" stroke-linejoin="round"/>
<path d="M1572.96 2084.29L1929.81 1876.49V1460.9L1572.96 1668.7L1572.96 2084.29Z" fill="#FFEF01" fill-opacity="0.5" stroke="white" stroke-width="7" stroke-miterlimit="1" stroke-linejoin="round"/>
<path d="M1929.81 1460.9L1572.96 1253.1L1216.11 1460.9L1572.96 1668.7L1929.81 1460.9Z" fill="#FFEF01" fill-opacity="0.5" stroke="white" stroke-width="7" stroke-miterlimit="1" stroke-linejoin="round"/>
<path d="M1929.81 1373.65L1572.96 1165.85L1216.11 1373.65L1572.96 1581.44L1929.81 1373.65Z" fill="white" fill-opacity="0.5" stroke="#FFEF01" stroke-width="7" stroke-miterlimit="1" stroke-linejoin="round"/>
<path d="M1929.81 1373.65L1572.96 1165.85V750.26L1929.81 958.056V1373.65Z" fill="white" fill-opacity="0.5" stroke="#FFEF01" stroke-width="7" stroke-miterlimit="1" stroke-linejoin="round"/>
<path d="M1572.96 1165.85L1216.11 1373.65L1216.11 958.056L1572.96 750.26V1165.85Z" fill="white" fill-opacity="0.5" stroke="#FFEF01" stroke-width="7" stroke-miterlimit="1" stroke-linejoin="round"/>
<path d="M1572.96 1581.44L1216.11 1373.65V958.056L1572.96 1165.85V1581.44Z" fill="white" fill-opacity="0.5" stroke="#FFEF01" stroke-width="7" stroke-miterlimit="1" stroke-linejoin="round"/>
<path d="M1572.96 1581.44L1929.81 1373.65V958.056L1572.96 1165.85L1572.96 1581.44Z" fill="white" fill-opacity="0.5" stroke="#FFEF01" stroke-width="7" stroke-miterlimit="1" stroke-linejoin="round"/>
<path d="M1929.81 958.056L1572.96 750.26L1216.11 958.056L1572.96 1165.85L1929.81 958.056Z" fill="white" fill-opacity="0.5" stroke="#FFEF01" stroke-width="7" stroke-miterlimit="1" stroke-linejoin="round"/>
<path d="M1929.81 867.602L1572.96 659.806L1216.11 867.602L1572.96 1075.4L1929.81 867.602Z" fill="white" fill-opacity="0.5" stroke="#FFEF01" stroke-width="7" stroke-miterlimit="1" stroke-linejoin="round"/>
<path d="M1929.81 867.602L1572.96 659.806V244.215L1929.81 452.011V867.602Z" fill="white" fill-opacity="0.5" stroke="#FFEF01" stroke-width="7" stroke-miterlimit="1" stroke-linejoin="round"/>
<path d="M1572.96 659.806L1216.11 867.602L1216.11 452.011L1572.96 244.215V659.806Z" fill="white" fill-opacity="0.5" stroke="#FFEF01" stroke-width="7" stroke-miterlimit="1" stroke-linejoin="round"/>
<path d="M1572.96 1075.4L1216.11 867.602V452.01L1572.96 659.806V1075.4Z" fill="white" fill-opacity="0.5" stroke="#FFEF01" stroke-width="7" stroke-miterlimit="1" stroke-linejoin="round"/>
<path d="M1572.96 1075.4L1929.81 867.602V452.01L1572.96 659.806L1572.96 1075.4Z" fill="white" fill-opacity="0.5" stroke="#FFEF01" stroke-width="7" stroke-miterlimit="1" stroke-linejoin="round"/>
<path d="M1929.81 452.01L1572.96 244.215L1216.11 452.01L1572.96 659.806L1929.81 452.01Z" fill="white" fill-opacity="0.5" stroke="#FFEF01" stroke-width="7" stroke-miterlimit="1" stroke-linejoin="round"/>
<path d="M1532.66 2110.3L1175.81 1902.5L818.959 2110.3L1175.81 2318.1L1532.66 2110.3Z" fill="white" fill-opacity="0.5" stroke="#FFEF01" stroke-width="7" stroke-miterlimit="1" stroke-linejoin="round"/>
<path d="M1532.66 2110.3L1175.81 1902.5V1486.91L1532.66 1694.71V2110.3Z" fill="white" fill-opacity="0.5" stroke="#FFEF01" stroke-width="7" stroke-miterlimit="1" stroke-linejoin="round"/>
<path d="M1175.81 1902.5L818.959 2110.3L818.959 1694.71L1175.81 1486.91V1902.5Z" fill="white" fill-opacity="0.5" stroke="#FFEF01" stroke-width="7" stroke-miterlimit="1" stroke-linejoin="round"/>
<path d="M1175.81 2318.1L818.959 2110.3V1694.71L1175.81 1902.5V2318.1Z" fill="white" fill-opacity="0.5" stroke="#FFEF01" stroke-width="7" stroke-miterlimit="1" stroke-linejoin="round"/>
<path d="M1175.81 2318.1L1532.66 2110.3V1694.71L1175.81 1902.5L1175.81 2318.1Z" fill="white" fill-opacity="0.5" stroke="#FFEF01" stroke-width="7" stroke-miterlimit="1" stroke-linejoin="round"/>
<path d="M1532.66 1694.71L1175.81 1486.91L818.959 1694.71L1175.81 1902.5L1532.66 1694.71Z" fill="white" fill-opacity="0.5" stroke="#FFEF01" stroke-width="7" stroke-miterlimit="1" stroke-linejoin="round"/>
<path d="M1532.66 1607.46L1175.81 1399.66L818.959 1607.46L1175.81 1815.25L1532.66 1607.46Z" fill="#FFEF01" fill-opacity="0.5" stroke="white" stroke-width="7" stroke-miterlimit="1" stroke-linejoin="round"/>
<path d="M1532.66 1607.46L1175.81 1399.66V984.069L1532.66 1191.87V1607.46Z" fill="#FFEF01" fill-opacity="0.5" stroke="white" stroke-width="7" stroke-miterlimit="1" stroke-linejoin="round"/>
<path d="M1175.81 1399.66L818.959 1607.46L818.959 1191.87L1175.81 984.069V1399.66Z" fill="#FFEF01" fill-opacity="0.5" stroke="white" stroke-width="7" stroke-miterlimit="1" stroke-linejoin="round"/>
<path d="M1175.81 1815.25L818.959 1607.46V1191.86L1175.81 1399.66V1815.25Z" fill="#FFEF01" fill-opacity="0.5" stroke="white" stroke-width="7" stroke-miterlimit="1" stroke-linejoin="round"/>
<path d="M1175.81 1815.25L1532.66 1607.46V1191.86L1175.81 1399.66L1175.81 1815.25Z" fill="#FFEF01" fill-opacity="0.5" stroke="white" stroke-width="7" stroke-miterlimit="1" stroke-linejoin="round"/>
<path d="M1532.66 1191.86L1175.81 984.069L818.959 1191.86L1175.81 1399.66L1532.66 1191.86Z" fill="#FFEF01" fill-opacity="0.5" stroke="white" stroke-width="7" stroke-miterlimit="1" stroke-linejoin="round"/>
<path d="M1532.66 1101.41L1175.81 893.611L818.959 1101.41L1175.81 1309.2L1532.66 1101.41Z" fill="white" fill-opacity="0.5" stroke="#FFEF01" stroke-width="7" stroke-miterlimit="1" stroke-linejoin="round"/>
<path d="M1532.66 1101.41L1175.81 893.612V478.02L1532.66 685.816V1101.41Z" fill="white" fill-opacity="0.5" stroke="#FFEF01" stroke-width="7" stroke-miterlimit="1" stroke-linejoin="round"/>
<path d="M1175.81 893.612L818.959 1101.41L818.959 685.816L1175.81 478.02V893.612Z" fill="white" fill-opacity="0.5" stroke="#FFEF01" stroke-width="7" stroke-miterlimit="1" stroke-linejoin="round"/>
<path d="M1175.81 1309.2L818.959 1101.41V685.816L1175.81 893.612V1309.2Z" fill="white" fill-opacity="0.5" stroke="#FFEF01" stroke-width="7" stroke-miterlimit="1" stroke-linejoin="round"/>
<path d="M1175.81 1309.2L1532.66 1101.41V685.816L1175.81 893.612L1175.81 1309.2Z" fill="white" fill-opacity="0.5" stroke="#FFEF01" stroke-width="7" stroke-miterlimit="1" stroke-linejoin="round"/>
<path d="M1532.66 685.816L1175.81 478.02L818.959 685.816L1175.81 893.612L1532.66 685.816Z" fill="white" fill-opacity="0.5" stroke="#FFEF01" stroke-width="7" stroke-miterlimit="1" stroke-linejoin="round"/>
<path d="M1127.66 2347.42L770.814 2139.63L413.963 2347.42L770.814 2555.22L1127.66 2347.42Z" fill="white" fill-opacity="0.5" stroke="#FFEF01" stroke-width="7" stroke-miterlimit="1" stroke-linejoin="round"/>
<path d="M1127.66 2347.43L770.813 2139.63L770.812 1724.04L1127.66 1931.83V2347.43Z" fill="white" fill-opacity="0.5" stroke="#FFEF01" stroke-width="7" stroke-miterlimit="1" stroke-linejoin="round"/>
<path d="M770.814 2139.63L413.963 2347.43L413.963 1931.83L770.814 1724.04V2139.63Z" fill="white" fill-opacity="0.5" stroke="#FFEF01" stroke-width="7" stroke-miterlimit="1" stroke-linejoin="round"/>
<path d="M770.814 2555.22L413.963 2347.42V1931.83L770.814 2139.63V2555.22Z" fill="white" fill-opacity="0.5" stroke="#FFEF01" stroke-width="7" stroke-miterlimit="1" stroke-linejoin="round"/>
<path d="M770.813 2555.22L1127.66 2347.42V1931.83L770.812 2139.63L770.813 2555.22Z" fill="white" fill-opacity="0.5" stroke="#FFEF01" stroke-width="7" stroke-miterlimit="1" stroke-linejoin="round"/>
<path d="M1127.66 1931.83L770.814 1724.04L413.963 1931.83L770.814 2139.63L1127.66 1931.83Z" fill="white" fill-opacity="0.5" stroke="#FFEF01" stroke-width="7" stroke-miterlimit="1" stroke-linejoin="round"/>
<path d="M1127.66 1844.58L770.814 1636.78L413.963 1844.58L770.814 2052.37L1127.66 1844.58Z" fill="#FFEF01" fill-opacity="0.5" stroke="white" stroke-width="7" stroke-miterlimit="1" stroke-linejoin="round"/>
<path d="M1127.66 1844.58L770.813 1636.78L770.812 1221.19L1127.66 1428.99V1844.58Z" fill="#FFEF01" fill-opacity="0.5" stroke="white" stroke-width="7" stroke-miterlimit="1" stroke-linejoin="round"/>
<path d="M770.814 1636.78L413.963 1844.58L413.963 1428.99L770.814 1221.19V1636.78Z" fill="#FFEF01" fill-opacity="0.5" stroke="white" stroke-width="7" stroke-miterlimit="1" stroke-linejoin="round"/>
<path d="M770.814 2052.37L413.963 1844.58V1428.99L770.814 1636.78V2052.37Z" fill="#FFEF01" fill-opacity="0.5" stroke="white" stroke-width="7" stroke-miterlimit="1" stroke-linejoin="round"/>
<path d="M770.813 2052.37L1127.66 1844.58V1428.99L770.812 1636.78L770.813 2052.37Z" fill="#FFEF01" fill-opacity="0.5" stroke="white" stroke-width="7" stroke-miterlimit="1" stroke-linejoin="round"/>
<path d="M1127.66 1428.99L770.814 1221.19L413.963 1428.99L770.814 1636.78L1127.66 1428.99Z" fill="#FFEF01" fill-opacity="0.5" stroke="white" stroke-width="7" stroke-miterlimit="1" stroke-linejoin="round"/>
<path d="M1127.66 1338.53L770.814 1130.73L413.963 1338.53L770.814 1546.33L1127.66 1338.53Z" fill="white" fill-opacity="0.5" stroke="#FFEF01" stroke-width="7" stroke-miterlimit="1" stroke-linejoin="round"/>
<path d="M1127.66 1338.53L770.813 1130.73L770.812 715.143L1127.66 922.939V1338.53Z" fill="white" fill-opacity="0.5" stroke="#FFEF01" stroke-width="7" stroke-miterlimit="1" stroke-linejoin="round"/>
<path d="M770.814 1130.73L413.963 1338.53L413.963 922.939L770.814 715.143V1130.73Z" fill="white" fill-opacity="0.5" stroke="#FFEF01" stroke-width="7" stroke-miterlimit="1" stroke-linejoin="round"/>
<path d="M770.814 1546.33L413.963 1338.53V922.938L770.814 1130.73V1546.33Z" fill="white" fill-opacity="0.5" stroke="#FFEF01" stroke-width="7" stroke-miterlimit="1" stroke-linejoin="round"/>
<path d="M770.813 1546.33L1127.66 1338.53V922.938L770.812 1130.73L770.813 1546.33Z" fill="white" fill-opacity="0.5" stroke="#FFEF01" stroke-width="7" stroke-miterlimit="1" stroke-linejoin="round"/>
<path d="M1127.66 922.939L770.814 715.143L413.963 922.939L770.814 1130.73L1127.66 922.939Z" fill="white" fill-opacity="0.5" stroke="#FFEF01" stroke-width="7" stroke-miterlimit="1" stroke-linejoin="round"/>
<path d="M2342.98 2116.71L1986.13 1908.91L1629.28 2116.71L1986.13 2324.5L2342.98 2116.71Z" fill="white" fill-opacity="0.5" stroke="#FFEF01" stroke-width="7" stroke-miterlimit="1" stroke-linejoin="round"/>
<path d="M2342.98 2116.71L1986.12 1908.91V1493.32L2342.98 1701.11V2116.71Z" fill="white" fill-opacity="0.5" stroke="#FFEF01" stroke-width="7" stroke-miterlimit="1" stroke-linejoin="round"/>
<path d="M1986.13 1908.91L1629.28 2116.71L1629.28 1701.11L1986.13 1493.32V1908.91Z" fill="white" fill-opacity="0.5" stroke="#FFEF01" stroke-width="7" stroke-miterlimit="1" stroke-linejoin="round"/>
<path d="M1986.13 2324.5L1629.28 2116.71V1701.11L1986.13 1908.91V2324.5Z" fill="white" fill-opacity="0.5" stroke="#FFEF01" stroke-width="7" stroke-miterlimit="1" stroke-linejoin="round"/>
<path d="M1986.13 2324.5L2342.98 2116.71V1701.11L1986.12 1908.91L1986.13 2324.5Z" fill="white" fill-opacity="0.5" stroke="#FFEF01" stroke-width="7" stroke-miterlimit="1" stroke-linejoin="round"/>
<path d="M2342.98 1701.11L1986.13 1493.32L1629.28 1701.11L1986.13 1908.91L2342.98 1701.11Z" fill="white" fill-opacity="0.5" stroke="#FFEF01" stroke-width="7" stroke-miterlimit="1" stroke-linejoin="round"/>
<path d="M2342.98 1613.86L1986.13 1406.07L1629.28 1613.86L1986.13 1821.66L2342.98 1613.86Z" fill="white" fill-opacity="0.5" stroke="#FFEF01" stroke-width="7" stroke-miterlimit="1" stroke-linejoin="round"/>
<path d="M2342.98 1613.86L1986.12 1406.07V990.475L2342.98 1198.27V1613.86Z" fill="white" fill-opacity="0.5" stroke="#FFEF01" stroke-width="7" stroke-miterlimit="1" stroke-linejoin="round"/>
<path d="M1986.13 1406.07L1629.28 1613.86L1629.28 1198.27L1986.13 990.475V1406.07Z" fill="white" fill-opacity="0.5" stroke="#FFEF01" stroke-width="7" stroke-miterlimit="1" stroke-linejoin="round"/>
<path d="M1986.13 1821.66L1629.28 1613.86V1198.27L1986.13 1406.07V1821.66Z" fill="white" fill-opacity="0.5" stroke="#FFEF01" stroke-width="7" stroke-miterlimit="1" stroke-linejoin="round"/>
<path d="M1986.13 1821.66L2342.98 1613.86V1198.27L1986.12 1406.07L1986.13 1821.66Z" fill="white" fill-opacity="0.5" stroke="#FFEF01" stroke-width="7" stroke-miterlimit="1" stroke-linejoin="round"/>
<path d="M2342.98 1198.27L1986.13 990.475L1629.28 1198.27L1986.13 1406.07L2342.98 1198.27Z" fill="white" fill-opacity="0.5" stroke="#FFEF01" stroke-width="7" stroke-miterlimit="1" stroke-linejoin="round"/>
<path d="M2342.98 1107.81L1986.13 900.017L1629.28 1107.81L1986.13 1315.61L2342.98 1107.81Z" fill="#FFEF01" fill-opacity="0.5" stroke="white" stroke-width="7" stroke-miterlimit="1" stroke-linejoin="round"/>
<path d="M2342.98 1107.81L1986.12 900.018V484.426L2342.98 692.222V1107.81Z" fill="#FFEF01" fill-opacity="0.5" stroke="white" stroke-width="7" stroke-miterlimit="1" stroke-linejoin="round"/>
<path d="M1986.13 900.018L1629.28 1107.81L1629.28 692.222L1986.13 484.426V900.018Z" fill="#FFEF01" fill-opacity="0.5" stroke="white" stroke-width="7" stroke-miterlimit="1" stroke-linejoin="round"/>
<path d="M1986.13 1315.61L1629.28 1107.81V692.221L1986.13 900.017V1315.61Z" fill="#FFEF01" fill-opacity="0.5" stroke="white" stroke-width="7" stroke-miterlimit="1" stroke-linejoin="round"/>
<path d="M1986.13 1315.61L2342.98 1107.81V692.221L1986.12 900.017L1986.13 1315.61Z" fill="#FFEF01" fill-opacity="0.5" stroke="white" stroke-width="7" stroke-miterlimit="1" stroke-linejoin="round"/>
<path d="M2342.98 692.222L1986.13 484.426L1629.28 692.222L1986.13 900.018L2342.98 692.222Z" fill="#FFEF01" fill-opacity="0.5" stroke="white" stroke-width="7" stroke-miterlimit="1" stroke-linejoin="round"/>
<path d="M1945.82 2350.51L1588.97 2142.72L1232.12 2350.51L1588.97 2558.31L1945.82 2350.51Z" fill="#FFEF01" fill-opacity="0.5" stroke="white" stroke-width="7" stroke-miterlimit="1" stroke-linejoin="round"/>
<path d="M1945.82 2350.51L1588.97 2142.72V1727.13L1945.82 1934.92V2350.51Z" fill="#FFEF01" fill-opacity="0.5" stroke="white" stroke-width="7" stroke-miterlimit="1" stroke-linejoin="round"/>
<path d="M1588.97 2142.72L1232.12 2350.51L1232.12 1934.92L1588.97 1727.13V2142.72Z" fill="#FFEF01" fill-opacity="0.5" stroke="white" stroke-width="7" stroke-miterlimit="1" stroke-linejoin="round"/>
<path d="M1588.97 2558.31L1232.12 2350.51V1934.92L1588.97 2142.72V2558.31Z" fill="#FFEF01" fill-opacity="0.5" stroke="white" stroke-width="7" stroke-miterlimit="1" stroke-linejoin="round"/>
<path d="M1588.97 2558.31L1945.82 2350.51V1934.92L1588.97 2142.72L1588.97 2558.31Z" fill="#FFEF01" fill-opacity="0.5" stroke="white" stroke-width="7" stroke-miterlimit="1" stroke-linejoin="round"/>
<path d="M1945.82 1934.92L1588.97 1727.13L1232.12 1934.92L1588.97 2142.72L1945.82 1934.92Z" fill="#FFEF01" fill-opacity="0.5" stroke="white" stroke-width="7" stroke-miterlimit="1" stroke-linejoin="round"/>
<path d="M1945.82 1847.67L1588.97 1639.87L1232.12 1847.67L1588.97 2055.46L1945.82 1847.67Z" fill="white" fill-opacity="0.5" stroke="#FFEF01" stroke-width="7" stroke-miterlimit="1" stroke-linejoin="round"/>
<path d="M1945.82 1847.67L1588.97 1639.87V1224.28L1945.82 1432.08V1847.67Z" fill="white" fill-opacity="0.5" stroke="#FFEF01" stroke-width="7" stroke-miterlimit="1" stroke-linejoin="round"/>
<path d="M1588.97 1639.87L1232.12 1847.67L1232.12 1432.08L1588.97 1224.28V1639.87Z" fill="white" fill-opacity="0.5" stroke="#FFEF01" stroke-width="7" stroke-miterlimit="1" stroke-linejoin="round"/>
<path d="M1588.97 2055.46L1232.12 1847.67V1432.08L1588.97 1639.87V2055.46Z" fill="white" fill-opacity="0.5" stroke="#FFEF01" stroke-width="7" stroke-miterlimit="1" stroke-linejoin="round"/>
<path d="M1588.97 2055.46L1945.82 1847.67V1432.08L1588.97 1639.87L1588.97 2055.46Z" fill="white" fill-opacity="0.5" stroke="#FFEF01" stroke-width="7" stroke-miterlimit="1" stroke-linejoin="round"/>
<path d="M1945.82 1432.08L1588.97 1224.28L1232.12 1432.08L1588.97 1639.87L1945.82 1432.08Z" fill="white" fill-opacity="0.5" stroke="#FFEF01" stroke-width="7" stroke-miterlimit="1" stroke-linejoin="round"/>
<path d="M1945.82 1341.62L1588.97 1133.82L1232.12 1341.62L1588.97 1549.41L1945.82 1341.62Z" fill="#FFEF01" fill-opacity="0.5" stroke="white" stroke-width="7" stroke-miterlimit="1" stroke-linejoin="round"/>
<path d="M1945.82 1341.62L1588.97 1133.82V718.231L1945.82 926.027V1341.62Z" fill="#FFEF01" fill-opacity="0.5" stroke="white" stroke-width="7" stroke-miterlimit="1" stroke-linejoin="round"/>
<path d="M1588.97 1133.82L1232.12 1341.62L1232.12 926.027L1588.97 718.231V1133.82Z" fill="#FFEF01" fill-opacity="0.5" stroke="white" stroke-width="7" stroke-miterlimit="1" stroke-linejoin="round"/>
<path d="M1588.97 1549.41L1232.12 1341.62V926.027L1588.97 1133.82V1549.41Z" fill="#FFEF01" fill-opacity="0.5" stroke="white" stroke-width="7" stroke-miterlimit="1" stroke-linejoin="round"/>
<path d="M1588.97 1549.41L1945.82 1341.62V926.027L1588.97 1133.82L1588.97 1549.41Z" fill="#FFEF01" fill-opacity="0.5" stroke="white" stroke-width="7" stroke-miterlimit="1" stroke-linejoin="round"/>
<path d="M1945.82 926.027L1588.97 718.231L1232.12 926.027L1588.97 1133.82L1945.82 926.027Z" fill="#FFEF01" fill-opacity="0.5" stroke="white" stroke-width="7" stroke-miterlimit="1" stroke-linejoin="round"/>
<path d="M1540.83 2587.64L1183.98 2379.84L827.129 2587.64L1183.98 2795.43L1540.83 2587.64Z" fill="#FFEF01" fill-opacity="0.5" stroke="white" stroke-width="7" stroke-miterlimit="1" stroke-linejoin="round"/>
<path d="M1540.83 2587.64L1183.98 2379.84V1964.25L1540.83 2172.04V2587.64Z" fill="#FFEF01" fill-opacity="0.5" stroke="white" stroke-width="7" stroke-miterlimit="1" stroke-linejoin="round"/>
<path d="M1183.98 2379.84L827.129 2587.64L827.129 2172.04L1183.98 1964.25V2379.84Z" fill="#FFEF01" fill-opacity="0.5" stroke="white" stroke-width="7" stroke-miterlimit="1" stroke-linejoin="round"/>
<path d="M1183.98 2795.43L827.129 2587.64V2172.04L1183.98 2379.84V2795.43Z" fill="#FFEF01" fill-opacity="0.5" stroke="white" stroke-width="7" stroke-miterlimit="1" stroke-linejoin="round"/>
<path d="M1183.98 2795.43L1540.83 2587.64V2172.04L1183.98 2379.84L1183.98 2795.43Z" fill="#FFEF01" fill-opacity="0.5" stroke="white" stroke-width="7" stroke-miterlimit="1" stroke-linejoin="round"/>
<path d="M1540.83 2172.04L1183.98 1964.25L827.129 2172.04L1183.98 2379.84L1540.83 2172.04Z" fill="#FFEF01" fill-opacity="0.5" stroke="white" stroke-width="7" stroke-miterlimit="1" stroke-linejoin="round"/>
<path d="M1540.83 2084.79L1183.98 1876.99L827.129 2084.79L1183.98 2292.59L1540.83 2084.79Z" fill="#FFEF01" fill-opacity="0.5" stroke="white" stroke-width="7" stroke-miterlimit="1" stroke-linejoin="round"/>
<path d="M1540.83 2084.79L1183.98 1876.99V1461.4L1540.83 1669.2V2084.79Z" fill="#FFEF01" fill-opacity="0.5" stroke="white" stroke-width="7" stroke-miterlimit="1" stroke-linejoin="round"/>
<path d="M1183.98 1876.99L827.129 2084.79L827.129 1669.2L1183.98 1461.4V1876.99Z" fill="#FFEF01" fill-opacity="0.5" stroke="white" stroke-width="7" stroke-miterlimit="1" stroke-linejoin="round"/>
<path d="M1183.98 2292.59L827.129 2084.79V1669.2L1183.98 1876.99V2292.59Z" fill="#FFEF01" fill-opacity="0.5" stroke="white" stroke-width="7" stroke-miterlimit="1" stroke-linejoin="round"/>
<path d="M1183.98 2292.59L1540.83 2084.79V1669.2L1183.98 1876.99L1183.98 2292.59Z" fill="#FFEF01" fill-opacity="0.5" stroke="white" stroke-width="7" stroke-miterlimit="1" stroke-linejoin="round"/>
<path d="M1540.83 1669.2L1183.98 1461.4L827.129 1669.2L1183.98 1876.99L1540.83 1669.2Z" fill="#FFEF01" fill-opacity="0.5" stroke="white" stroke-width="7" stroke-miterlimit="1" stroke-linejoin="round"/>
<path d="M1540.83 1578.74L1183.98 1370.95L827.129 1578.74L1183.98 1786.54L1540.83 1578.74Z" fill="white" fill-opacity="0.5" stroke="#FFEF01" stroke-width="7" stroke-miterlimit="1" stroke-linejoin="round"/>
<path d="M1540.83 1578.74L1183.98 1370.95V955.356L1540.83 1163.15V1578.74Z" fill="white" fill-opacity="0.5" stroke="#FFEF01" stroke-width="7" stroke-miterlimit="1" stroke-linejoin="round"/>
<path d="M1183.98 1370.95L827.129 1578.74L827.129 1163.15L1183.98 955.356V1370.95Z" fill="white" fill-opacity="0.5" stroke="#FFEF01" stroke-width="7" stroke-miterlimit="1" stroke-linejoin="round"/>
<path d="M1183.98 1786.54L827.129 1578.74V1163.15L1183.98 1370.95V1786.54Z" fill="white" fill-opacity="0.5" stroke="#FFEF01" stroke-width="7" stroke-miterlimit="1" stroke-linejoin="round"/>
<path d="M1183.98 1786.54L1540.83 1578.74V1163.15L1183.98 1370.95L1183.98 1786.54Z" fill="white" fill-opacity="0.5" stroke="#FFEF01" stroke-width="7" stroke-miterlimit="1" stroke-linejoin="round"/>
<path d="M1540.83 1163.15L1183.98 955.356L827.129 1163.15L1183.98 1370.95L1540.83 1163.15Z" fill="white" fill-opacity="0.5" stroke="#FFEF01" stroke-width="7" stroke-miterlimit="1" stroke-linejoin="round"/>
</svg>
